<?xml version="1.0" encoding="utf-8"?>
<!-- Generator: Adobe Illustrator 23.0.1, SVG Export Plug-In . SVG Version: 6.00 Build 0)  -->
<svg version="1.1" id="Capa_1" xmlns="http://www.w3.org/2000/svg" xmlns:xlink="http://www.w3.org/1999/xlink" x="0px" y="0px"
	 viewBox="0 0 2152.12 841.89" style="enable-background:new 0 0 2152.12 841.89;" xml:space="preserve">
<style type="text/css">
	.st0{fill:#00A0DF;}
</style>
<g>
	<g>
		<path class="st0" d="M531.73,580.48c-2.16,4.73-2.96,10.26-5.41,15.7c-4.51,10.06-14.91,16.79-26.96,18.64
			c5.62-9.76,14.09-18.63,20.11-29.43c6.12-10.97,11.26-22.86,15.21-35.8c9.89-10.8,23.04-15.06,35.31-21.08
			c22.85-11.22,41.62-30.13,49.04-56.4c3.51-12.43,2.79-26.91,9.81-39.23c2.73-4.79,7-8.2,9.81-13.74
			c-22.16,1.05-37.13,9.3-51.5,18.14c-18.43,14.95-34.17,34.81-38.25,64.25c-1.24,8.9-0.4,21.47-7.85,25.5
			c4.39-22.5,3.54-46.49,1.47-68.66c16.31-9.39,30.36-23.51,37.27-41.19c3.22-8.27,3.7-16.67,6.38-25.99
			c4.87-16.94,14.05-29.96,25.01-42.17c-44.62-5.49-78.89,23.23-88.27,56.4c-1.72,6.07-3.01,11.77-3.43,17.65
			c-0.96,13.32,3.05,23.21,5.4,32.37c7.64,29.86,3.43,62.03-4.41,88.27c-7.7,25.7-22.17,47.41-37.28,64.24
			c-30.01,33.46-82.33,61.8-145.16,55.42c-60.2-6.12-101.84-35.07-128.49-74.54c-19.53-28.92-34.71-73.17-27.46-121.14
			c1.95-12.91,8.37-27.28,6.87-44.14c-2.12-23.82-14.22-43.01-29.43-55.42c-15.31-12.5-36.67-22.32-62.77-18.14
			c3.02,4.38,6.8,7.7,9.81,11.77c6.5,8.8,11.33,19.29,14.71,30.41c1.73,5.7,2.53,11.64,4.41,18.15
			c5.25,18.18,14.82,29.97,27.46,40.21c4.26,3.45,12.32,6.92,13.24,9.81c1.25,3.91-1.02,12.46-1.47,17.66
			c-1.6,18.66,0.38,34.63,3.44,51.01c-8.87-5.76-7.08-17.95-8.34-26.49c-1.44-9.77-4.76-18.74-8.34-26.48
			c-14.14-30.57-41.21-51.25-81.9-55.42c3.45,6.34,6.89,8.97,9.8,14.23c7.46,13.43,6.52,28.96,10.79,42.17
			c8.34,25.78,27,44.64,51.5,54.44c10.52,4.21,27.95,11.68,32.86,20.6c3.07,5.57,4.18,12.49,6.86,18.14
			c5.5,11.55,11.31,22.52,18.15,31.88c3.52,4.82,8.23,9.06,9.81,14.23c-11.26-1.73-18.75-7.07-24.02-14.72
			c-5.02-7.26-6.39-16.84-10.79-24.52c-3.16-5.51-6.33-11.19-11.28-16.18c-3.67-3.71-8.9-8.65-14.22-11.77
			c-22-12.9-60.51-13.84-78.96,4.91c18.1,8.69,33.55,18.1,44.63,33.83c3.04,4.32,4.76,8.15,7.85,11.77
			c18.81,22.12,57.13,41.94,95.63,25.5c15.64,14.69,34.64,28.69,57.38,38.74c22.2,9.81,49.31,17.86,78.96,16.68
			c60.54-2.42,104.2-25.59,136.33-56.89c11.4,4.62,26.67,7.46,42.18,5.4c22.19-2.95,44.72-18.05,54.92-32.86
			c3.63-5.25,5.79-9.82,9.33-14.23c6.91-8.62,15.78-16.95,25.49-22.55c4.84-2.8,11.13-3.6,15.69-8.34
			c-10.13-8.05-22.99-12.94-37.28-13.73C566.4,535.39,542.47,556.84,531.73,580.48z"/>
		<path class="st0" d="M252.91,619.36c22.87,17.88,51.44,31.38,87.91,34.4c50.71,4.2,92.79-14.98,121.82-40.13
			c29.96-25.96,50.56-62.28,53.99-108.93c1.84-24.9-1.95-48.61-9.55-69.27c-12.74-34.61-33.39-64.01-69.28-74.53
			c-4.85-1.43-12.04-1.71-17.2-3.83c-6.67-2.73-8.67-11.53-6.21-17.68c2.12-5.32,8.81-9.21,15.29-8.6
			c6.24,0.58,9.18,8.33,13.85,11.46c21.26,14.21,50.14-5.33,45.39-30.1c-4.29-22.42-33.99-39.99-60.68-39.65
			c-16.64,0.21-31.7,6.15-45.38,14.62c0-5.57,0-33.3,0-33.3h58.76v-57.64h-58.76V136H324.1v60.2h-59.24v57.64h59.24
			c0,0,0,25.08,0,31.66c-28.48-21.85-74.74-11.55-92.69,8.52c-4.33,4.84-9.53,12.4-10.51,21.02c-2.76,24.19,23.59,40.86,43.96,29.14
			c6.45-3.71,9.94-10.72,15.29-11.94c17.25-3.94,23.29,20.66,9.08,25.8c-5.23,1.89-10.91,1.73-15.29,2.87
			c-34.36,8.85-53.53,34.13-67.36,63.06c-7.9,16.51-13.56,37.67-14.33,60.19c-1.28,36.92,8.47,68.36,22.45,91.73
			C225.33,593.66,237.33,607.18,252.91,619.36z M354.2,610.58c-1.5-0.01-2.98-0.06-4.44-0.12c0.57-1.32,0.89-2.78,0.89-4.31
			c0-6.01-4.89-10.9-10.9-10.9c-6.01,0-10.9,4.89-10.9,10.9c0,0.49,0.04,0.96,0.11,1.43c-2.44-0.58-4.8-1.23-7.1-1.93
			c-0.26-5.78-5.03-10.4-10.87-10.4c-2.9,0-5.54,1.15-7.5,3.01c-10.65-5.38-18.94-11.56-24.62-16.48c-0.11-0.09-0.2-0.19-0.31-0.28
			c0.02-0.3,0.05-0.59,0.05-0.9c0-6.01-4.89-10.9-10.9-10.9c-0.27,0-0.53,0.02-0.79,0.04c-2.01-2.35-3.89-4.78-5.67-7.27
			c1.82-1.95,2.94-4.55,2.94-7.42c0-6.01-4.89-10.9-10.9-10.9c-0.79,0-1.56,0.09-2.3,0.25c-1.29-2.92-2.43-5.92-3.46-8.98
			c1.11-1.71,1.76-3.74,1.76-5.92c0-4.14-2.32-7.75-5.73-9.59c-0.8-4.35-1.39-8.81-1.73-13.4c-0.43-5.86-0.42-11.74,0-17.56
			c4.69-1.21,8.18-5.47,8.18-10.54c0-3.86-2.02-7.25-5.06-9.18c0.62-2.51,1.34-4.99,2.13-7.43c1.79,1.29,3.98,2.06,6.34,2.06
			c6.01,0,10.9-4.89,10.9-10.9c0-5.41-3.97-9.9-9.15-10.74c1.47-2.87,2.93-5.42,4.38-7.69c2,2.26,4.91,3.69,8.16,3.69
			c6.01,0,10.9-4.89,10.9-10.9c0-3.44-1.61-6.51-4.11-8.51c2.44-1.47,4.55-2.27,6.19-2.8c0.44-0.07,0.89-0.15,1.35-0.22
			c5.42-0.89,13.35-2.21,22.2-5.47c1.86,1.47,4.19,2.35,6.74,2.35c6.01,0,10.9-4.89,10.9-10.9c0-0.2-0.02-0.4-0.03-0.6
			c8.76-6.14,15.98-14,21.41-22.94c0.94,5.05,5.38,8.89,10.7,8.89c5.53,0,10.1-4.15,10.8-9.49c5.43,9.14,12.73,17.17,21.61,23.43
			c-0.02,0.24-0.04,0.47-0.04,0.72c0,6.01,4.89,10.9,10.9,10.9c2.57,0,4.93-0.9,6.79-2.39c8.9,3.29,16.88,4.62,22.32,5.51
			c0.46,0.07,0.91,0.15,1.35,0.22c1.58,0.51,3.6,1.27,5.93,2.64c-2.62,1.99-4.32,5.13-4.32,8.67c0,6.01,4.89,10.9,10.9,10.9
			c3.4,0,6.43-1.56,8.43-4.01c1.49,2.32,3,4.93,4.52,7.89c-5.26,0.77-9.32,5.3-9.32,10.77c0,6.01,4.89,10.9,10.9,10.9
			c2.44,0,4.69-0.82,6.51-2.18c0.8,2.46,1.52,4.95,2.15,7.47c-3.19,1.9-5.34,5.38-5.34,9.36c0,5.19,3.65,9.53,8.51,10.63
			c0.42,5.79,0.43,11.64-0.01,17.47c-0.32,4.41-0.88,8.69-1.63,12.88c-4.02,1.6-6.87,5.53-6.87,10.12c0,2.61,0.93,5.01,2.47,6.89
			c-0.95,2.75-2,5.45-3.16,8.09c-0.84-0.21-1.72-0.33-2.62-0.33c-6.01,0-10.9,4.89-10.9,10.9c0,2.97,1.2,5.67,3.14,7.64
			c-1.73,2.43-3.58,4.79-5.53,7.09c-0.41-0.05-0.82-0.08-1.24-0.08c-6.01,0-10.9,4.89-10.9,10.9c0,0.44,0.03,0.87,0.08,1.29
			c-5.69,4.92-13.97,11.07-24.59,16.42c-1.96-1.89-4.62-3.06-7.55-3.06c-5.86,0-10.64,4.65-10.87,10.45
			c-2.29,0.7-4.65,1.34-7.08,1.91c0.07-0.48,0.11-0.97,0.11-1.46c0-6.01-4.89-10.9-10.9-10.9c-6.01,0-10.9,4.89-10.9,10.9
			c0,1.53,0.32,2.99,0.9,4.32C357.07,610.53,355.65,610.58,354.2,610.58z M354.2,346.53c0.84,7,2.61,13.82,5.21,20.28
			c-1.6-0.93-3.46-1.47-5.45-1.47c-1.74,0-3.39,0.42-4.85,1.15C351.64,360.12,353.36,353.41,354.2,346.53
			C354.2,346.53,354.2,346.53,354.2,346.53z"/>
		<path class="st0" d="M368.49,412.67c6.01,0,10.9-4.89,10.9-10.9c0-6.01-4.89-10.9-10.9-10.9c-6.01,0-10.9,4.89-10.9,10.9
			C357.6,407.78,362.48,412.67,368.49,412.67z"/>
		<path class="st0" d="M339.75,412.67c6.01,0,10.9-4.89,10.9-10.9c0-6.01-4.89-10.9-10.9-10.9c-6.01,0-10.9,4.89-10.9,10.9
			C328.85,407.78,333.74,412.67,339.75,412.67z"/>
		<path class="st0" d="M296.46,438.22c6.01,0,10.9-4.89,10.9-10.9c0-6.01-4.89-10.9-10.9-10.9c-6.01,0-10.9,4.89-10.9,10.9
			C285.56,433.33,290.45,438.22,296.46,438.22z"/>
		<path class="st0" d="M411.45,438.22c6.01,0,10.9-4.89,10.9-10.9c0-6.01-4.89-10.9-10.9-10.9c-6.01,0-10.9,4.89-10.9,10.9
			C400.56,433.33,405.44,438.22,411.45,438.22z"/>
		<path class="st0" d="M371.81,427.32c0,6.01,4.89,10.9,10.9,10.9c6.01,0,10.9-4.89,10.9-10.9c0-6.01-4.89-10.9-10.9-10.9
			C376.7,416.42,371.81,421.31,371.81,427.32z"/>
		<path class="st0" d="M343.07,427.32c0,6.01,4.89,10.9,10.9,10.9c6.01,0,10.9-4.89,10.9-10.9c0-6.01-4.89-10.9-10.9-10.9
			C347.96,416.42,343.07,421.31,343.07,427.32z"/>
		<path class="st0" d="M325.22,438.22c6.01,0,10.9-4.89,10.9-10.9c0-6.01-4.89-10.9-10.9-10.9c-6.01,0-10.9,4.89-10.9,10.9
			C314.33,433.33,319.21,438.22,325.22,438.22z"/>
		<path class="st0" d="M301.11,448.29c-0.68,1.42-1.07,3-1.07,4.67c0,6.01,4.89,10.9,10.9,10.9c4.51,0,8.39-2.75,10.04-6.67
			c0.58-1.33,0.9-2.79,0.9-4.32c0-6.01-4.89-10.9-10.9-10.9C306.61,441.97,302.84,444.57,301.11,448.29z"/>
		<path class="st0" d="M282.18,463.86c3.77,0,7.1-1.92,9.05-4.84c1.2-1.75,1.91-3.87,1.91-6.15c0-6.01-4.89-10.9-10.9-10.9
			c-3.77,0-7.1,1.93-9.06,4.85c-1.2,1.75-1.9,3.86-1.9,6.14C271.28,458.97,276.17,463.86,282.18,463.86z"/>
		<path class="st0" d="M415.08,452.87c0,6.01,4.89,10.9,10.9,10.9c6.01,0,10.9-4.89,10.9-10.9c0-6.01-4.89-10.9-10.9-10.9
			C419.97,441.97,415.08,446.86,415.08,452.87z"/>
		<path class="st0" d="M386.34,452.87c0,6.01,4.89,10.9,10.9,10.9c6.01,0,10.9-4.89,10.9-10.9c0-6.01-4.89-10.9-10.9-10.9
			C391.23,441.97,386.34,446.86,386.34,452.87z"/>
		<path class="st0" d="M368.49,441.97c-6.01,0-10.9,4.89-10.9,10.9c0,6.01,4.89,10.9,10.9,10.9c6.01,0,10.9-4.89,10.9-10.9
			C379.39,446.86,374.5,441.97,368.49,441.97z"/>
		<path class="st0" d="M339.75,441.97c-3.77,0-7.1,1.93-9.06,4.85c-1.2,1.75-1.9,3.86-1.9,6.14c0,6.01,4.89,10.9,10.9,10.9
			c3.77,0,7.1-1.93,9.06-4.85c1.2-1.75,1.9-3.86,1.9-6.14C350.65,446.86,345.76,441.97,339.75,441.97z"/>
		<path class="st0" d="M429.3,478.41c0,6.01,4.89,10.9,10.9,10.9c6.01,0,10.9-4.89,10.9-10.9c0-6.01-4.89-10.9-10.9-10.9
			C434.19,467.52,429.3,472.41,429.3,478.41z"/>
		<path class="st0" d="M307.36,478.41c0-6.01-4.89-10.9-10.9-10.9c-6.01,0-10.9,4.89-10.9,10.9c0,6.01,4.89,10.9,10.9,10.9
			C302.47,489.31,307.36,484.42,307.36,478.41z"/>
		<path class="st0" d="M267.72,489.31c0.03,0,0.05,0,0.08,0c0.03,0,0.05,0,0.08,0c6.01,0,10.9-4.89,10.9-10.9
			c0-6.01-4.89-10.9-10.9-10.9c-0.03,0-0.05,0-0.08,0c-0.03,0-0.05,0-0.08,0c-6.01,0-10.9,4.89-10.9,10.9
			C256.82,484.42,261.71,489.31,267.72,489.31z"/>
		<path class="st0" d="M411.45,467.52c-6.01,0-10.9,4.89-10.9,10.9c0,6.01,4.89,10.9,10.9,10.9c6.01,0,10.9-4.89,10.9-10.9
			C422.35,472.41,417.46,467.52,411.45,467.52z"/>
		<path class="st0" d="M382.71,467.52c-6.01,0-10.9,4.89-10.9,10.9c0,6.01,4.89,10.9,10.9,10.9c6.01,0,10.9-4.89,10.9-10.9
			C393.61,472.41,388.72,467.52,382.71,467.52z"/>
		<path class="st0" d="M343.07,478.41c0,6.01,4.89,10.9,10.9,10.9c6.01,0,10.9-4.89,10.9-10.9c0-6.01-4.89-10.9-10.9-10.9
			C347.96,467.52,343.07,472.41,343.07,478.41z"/>
		<path class="st0" d="M314.33,478.41c0,6.01,4.89,10.9,10.9,10.9c6.01,0,10.9-4.89,10.9-10.9c0-6.01-4.89-10.9-10.9-10.9
			C319.21,467.52,314.33,472.41,314.33,478.41z"/>
		
			<ellipse transform="matrix(0.9732 -0.2298 0.2298 0.9732 -103.6227 117.9556)" class="st0" cx="454.72" cy="503.96" rx="10.9" ry="10.9"/>
		
			<ellipse transform="matrix(0.7071 -0.7071 0.7071 0.7071 -265.2687 367.5075)" class="st0" cx="310.99" cy="503.96" rx="10.9" ry="10.9"/>
		<path class="st0" d="M282.38,493.07c0,0-0.01,0-0.01,0c-6.01,0-10.9,4.89-10.9,10.9c0,6.01,4.89,10.9,10.9,10.9c0,0,0.01,0,0.01,0
			c0,0,0.01,0,0.01,0c6.01,0,10.9-4.89,10.9-10.9c0-6.01-4.89-10.9-10.9-10.9C282.39,493.07,282.39,493.07,282.38,493.07z"/>
		
			<ellipse transform="matrix(0.7071 -0.7071 0.7071 0.7071 -282.0617 326.9655)" class="st0" cx="253.65" cy="503.96" rx="10.9" ry="10.9"/>
		<path class="st0" d="M436.88,503.96c0-6.01-4.89-10.9-10.9-10.9c-6.01,0-10.9,4.89-10.9,10.9c0,6.01,4.89,10.9,10.9,10.9
			C431.99,514.86,436.88,509.97,436.88,503.96z"/>
		
			<ellipse transform="matrix(0.7071 -0.7071 0.7071 0.7071 -240.007 428.4946)" class="st0" cx="397.24" cy="503.96" rx="10.9" ry="10.9"/>
		<path class="st0" d="M379.39,503.96c0-6.01-4.89-10.9-10.9-10.9c-6.01,0-10.9,4.89-10.9,10.9c0,6.01,4.89,10.9,10.9,10.9
			C374.5,514.86,379.39,509.97,379.39,503.96z"/>
		
			<ellipse transform="matrix(0.9732 -0.2298 0.2298 0.9732 -106.6976 91.5394)" class="st0" cx="339.75" cy="503.96" rx="10.9" ry="10.9"/>
		<path class="st0" d="M440.2,518.61c-6.01,0-10.9,4.89-10.9,10.9c0,6.01,4.89,10.9,10.9,10.9c6.01,0,10.9-4.89,10.9-10.9
			C451.09,523.5,446.2,518.61,440.2,518.61z"/>
		<path class="st0" d="M296.46,540.41c6.01,0,10.9-4.89,10.9-10.9c0-6.01-4.89-10.9-10.9-10.9c-6.01,0-10.9,4.89-10.9,10.9
			C285.56,535.52,290.45,540.41,296.46,540.41z"/>
		<path class="st0" d="M278.61,529.51c0-6.01-4.89-10.9-10.9-10.9c-0.1,0-0.19,0.01-0.28,0.01c-0.09,0-0.19-0.01-0.28-0.01
			c-6.01,0-10.9,4.89-10.9,10.9c0,6.01,4.89,10.9,10.9,10.9c0.1,0,0.19-0.01,0.28-0.01c0.09,0,0.19,0.01,0.28,0.01
			C273.73,540.41,278.61,535.52,278.61,529.51z"/>
		<path class="st0" d="M400.56,529.51c0,6.01,4.89,10.9,10.9,10.9c6.01,0,10.9-4.89,10.9-10.9c0-6.01-4.89-10.9-10.9-10.9
			C405.44,518.61,400.56,523.5,400.56,529.51z"/>
		<path class="st0" d="M382.71,540.41c6.01,0,10.9-4.89,10.9-10.9c0-6.01-4.89-10.9-10.9-10.9c-6.01,0-10.9,4.89-10.9,10.9
			C371.81,535.52,376.7,540.41,382.71,540.41z"/>
		<path class="st0" d="M353.97,540.41c6.01,0,10.9-4.89,10.9-10.9c0-6.01-4.89-10.9-10.9-10.9c-6.01,0-10.9,4.89-10.9,10.9
			C343.07,535.52,347.96,540.41,353.97,540.41z"/>
		<path class="st0" d="M325.22,540.41c6.01,0,10.9-4.89,10.9-10.9c0-6.01-4.89-10.9-10.9-10.9c-6.01,0-10.9,4.89-10.9,10.9
			C314.33,535.52,319.21,540.41,325.22,540.41z"/>
		
			<ellipse transform="matrix(0.9732 -0.2298 0.2298 0.9732 -119.2068 86.2987)" class="st0" cx="310.99" cy="555.06" rx="10.9" ry="10.9"/>
		<path class="st0" d="M293.14,555.06c0-6.01-4.89-10.9-10.9-10.9c-0.03,0-0.06,0-0.1,0.01c-0.03,0-0.06-0.01-0.1-0.01
			c-6.01,0-10.9,4.89-10.9,10.9c0,6.01,4.89,10.9,10.9,10.9c0.03,0,0.06,0,0.1,0s0.06,0,0.1,0
			C288.25,565.95,293.14,561.06,293.14,555.06z"/>
		<path class="st0" d="M425.98,544.16c-6.01,0-10.9,4.89-10.9,10.9c0,6.01,4.89,10.9,10.9,10.9c6.01,0,10.9-4.89,10.9-10.9
			C436.88,549.05,431.99,544.16,425.98,544.16z"/>
		
			<ellipse transform="matrix(0.9732 -0.2298 0.2298 0.9732 -116.8995 106.1147)" class="st0" cx="397.24" cy="555.06" rx="10.9" ry="10.9"/>
		<path class="st0" d="M379.39,555.06c0-6.01-4.89-10.9-10.9-10.9c-6.01,0-10.9,4.89-10.9,10.9c0,6.01,4.89,10.9,10.9,10.9
			C374.5,565.95,379.39,561.06,379.39,555.06z"/>
		
			<ellipse transform="matrix(0.7071 -0.7071 0.7071 0.7071 -292.9731 402.8106)" class="st0" cx="339.75" cy="555.06" rx="10.9" ry="10.9"/>
		<path class="st0" d="M296.46,569.71c-6.01,0-10.9,4.89-10.9,10.9s4.89,10.9,10.9,10.9c6.01,0,10.9-4.89,10.9-10.9
			S302.47,569.71,296.46,569.71z"/>
		
			<ellipse transform="matrix(0.9998 -0.0185 0.0185 0.9998 -10.6762 7.7153)" class="st0" cx="411.45" cy="580.6" rx="10.9" ry="10.9"/>
		
			<ellipse transform="matrix(0.9998 -0.0185 0.0185 0.9998 -10.6811 7.1832)" class="st0" cx="382.71" cy="580.6" rx="10.9" ry="10.9"/>
		<circle class="st0" cx="353.97" cy="580.6" r="10.9"/>
		<circle class="st0" cx="325.22" cy="580.6" r="10.9"/>
	</g>
	<g>
		<g>
			<path class="st0" d="M755.8,319.58v68.88h-13.59v-29.74h-30.88v29.74h-13.59v-68.88h13.59v28.12h30.88v-28.12H755.8z"/>
			<path class="st0" d="M764.35,363c0-17.96,12.07-26.79,25.37-26.79c13.3,0,25.37,8.84,25.37,26.79c0,17.96-12.07,26.7-25.37,26.7
				C776.41,389.69,764.35,380.95,764.35,363z M777.65,363c0,10.64,4.46,16.44,12.06,16.44c7.6,0,12.07-5.8,12.07-16.44
				c0-10.74-4.46-16.53-12.07-16.53C782.11,346.47,777.65,352.26,777.65,363z"/>
			<path class="st0" d="M852.89,352.74c-0.95-4.27-4.94-7.31-11.31-7.31c-5.22,0-8.64,1.8-8.64,4.94c0,2.76,2,4.75,7.22,5.89
				l6.84,1.52c10.55,2.38,19.19,4.85,19.19,15.39c0,10.26-10.54,16.53-22.51,16.53c-12.92,0-22.42-6.46-23.66-18.15h12.64
				c0.76,4.94,4.28,8.65,11.4,8.65c5.98,0,9.59-2.09,9.59-5.79c0-3.8-3.99-5.23-8.74-6.27l-7.6-1.62
				c-9.98-2.09-16.34-5.98-16.34-15.29c0-9.21,9.88-15.2,21.28-15.2c11.02,0,21.19,4.94,22.9,16.72H852.89z"/>
			<path class="st0" d="M873.88,405.08v-67.74h13.11v6.55c2.75-4.75,8.27-7.69,14.73-7.69c12.73,0,21.95,10.64,21.95,26.7
				c0,16.34-9.5,26.79-22.04,26.79c-5.32,0-11.4-2.09-14.63-7.7v23.08H873.88z M909.89,363c0-9.98-4.28-16.72-11.4-16.72
				c-7.22,0-11.97,6.37-11.97,16.63c0,10.45,4.75,16.72,11.97,16.72C905.61,379.62,909.89,372.97,909.89,363z"/>
			<path class="st0" d="M945.13,319.58v12.16h-13.11v-12.16H945.13z M945.13,337.35v51.11h-13.11v-51.11H945.13z"/>
			<path class="st0" d="M958.62,323.48h13.11v13.87h10.64v9.03h-10.64v26.41c0,5.22,1.8,6.27,6.46,6.27h3.99v9.41h-9.6
				c-11.68,0-13.96-3.61-13.96-13.78v-28.31h-7.22v-9.03h7.22V323.48z"/>
			<path class="st0" d="M1006.98,389.69c-9.79,0-18.43-5.7-18.43-14.92c0-12.16,13.58-15.77,33.63-18.05v-0.95
				c0-7.88-4.18-10.55-9.79-10.55c-5.61,0-9.79,2.66-10.07,8.27h-12.25c0.95-10.07,9.79-17.48,22.8-17.48
				c12.64,0,22.42,5.13,22.42,22.42c0,1.62-0.19,8.46-0.19,13.11c0,8.08,0.57,12.64,1.52,16.91h-12.07
				c-0.38-1.62-0.76-4.08-0.95-6.55C1019.99,387.32,1014.67,389.69,1006.98,389.69z M1022.56,365.09
				c-14.63,1.52-20.52,3.23-20.52,8.93c0,3.71,2.95,6.75,8.84,6.75c8.17,0,11.69-4.75,11.69-13.11V365.09z"/>
			<path class="st0" d="M1059.22,388.46h-13.11v-68.88h13.11V388.46z"/>
		</g>
		<g>
			<path class="st0" d="M712.97,590.11h-17.01v-8.85h45.01v8.85h-17.09v46.46h-10.91V590.11z"/>
			<path class="st0" d="M736.93,615.9c0-12.21,8.01-21.29,20.37-21.29c12.89,0,20.37,9.84,19.91,24.34h-29.75
				c0.15,6.1,4.2,10.45,10.07,10.45c3.43,0,6.26-1.14,8.39-4.73h10.83c-2.21,6.1-7.78,12.89-19.15,12.89
				C744.18,637.57,736.93,627.73,736.93,615.9z M747.54,611.7h19c-0.23-6.94-4.81-9.38-9.46-9.38
				C752.8,602.32,748.15,605.45,747.54,611.7z"/>
			<path class="st0" d="M796.06,600.95c2.37-4.12,6.87-6.33,11.9-6.33c9.84,0,14.19,6.03,14.19,16.1v25.86h-10.53V613
				c0-5.34-1.14-9.92-7.09-9.92c-6.94,0-8.47,5.65-8.47,12.13v21.36h-10.53v-41.04h10.53V600.95z"/>
			<path class="st0" d="M829.87,615.9c0-12.21,8.01-21.29,20.37-21.29c12.89,0,20.37,9.84,19.91,24.34h-29.75
				c0.15,6.1,4.2,10.45,10.07,10.45c3.43,0,6.26-1.14,8.39-4.73h10.83c-2.21,6.1-7.78,12.89-19.15,12.89
				C837.11,637.57,829.87,627.73,829.87,615.9z M840.47,611.7h19c-0.23-6.94-4.81-9.38-9.46-9.38
				C845.73,602.32,841.08,605.45,840.47,611.7z"/>
			<path class="st0" d="M901.96,605.68c-1.53-0.15-2.82-0.23-4.35-0.23c-5.19,0-8.62,1.91-8.62,9.61v21.51h-10.53v-41.04h10.38v7.17
				c2.37-5.04,6.1-7.09,10.83-7.09c0.69,0,1.6,0.08,2.29,0.15V605.68z"/>
			<path class="st0" d="M919.44,581.26v9.77h-10.53v-9.77H919.44z M919.44,595.53v41.04h-10.53v-41.04H919.44z"/>
			<path class="st0" d="M931.42,593.24c0-10.38,4.88-11.98,15.18-11.98h3.59v7.78h-2.06c-5.19,0-6.18,0.61-6.18,4.5v1.98h8.24v7.25
				h-8.24v33.8h-10.53v-33.8h-5.8v-7.25h5.8V593.24z"/>
			<path class="st0" d="M954.38,615.9c0-12.21,8.01-21.29,20.37-21.29c12.89,0,20.37,9.84,19.91,24.34h-29.75
				c0.15,6.1,4.2,10.45,10.07,10.45c3.43,0,6.26-1.14,8.39-4.73h10.83c-2.21,6.1-7.78,12.89-19.15,12.89
				C961.63,637.57,954.38,627.73,954.38,615.9z M964.99,611.7h19c-0.23-6.94-4.81-9.38-9.46-9.38
				C970.25,602.32,965.6,605.45,964.99,611.7z"/>
		</g>
		<g>
			<path class="st0" d="M725.31,478.93c-18.17-3.54-33.42-12.94-33.42-32.34c0-22.49,23.87-32.34,44.51-32.34
				c23.1,0,42.81,13.55,43.89,34.96h-21.25c-1.69-13.09-13.09-17.4-23.56-17.4c-10.16,0-21.56,3.85-21.56,13.86
				c0,7.85,6.62,12.17,15.55,13.86l14.63,2.62c18.17,3.23,38.19,10.47,38.19,33.57c0,22.95-22.79,34.19-45.28,34.19
				c-27.41,0-45.59-14.78-47.59-38.81h21.25c2.46,16.33,13.86,21.25,27.1,21.25c9.86,0,22.33-3.54,22.33-15.55
				c0-9.55-8.78-13.09-20.64-15.25L725.31,478.93z"/>
			<path class="st0" d="M821.1,529.91c-15.86,0-29.88-9.24-29.88-24.18c0-19.71,22.02-25.57,54.52-29.26v-1.54
				c0-12.78-6.78-17.09-15.86-17.09c-9.09,0-15.86,4.31-16.33,13.4h-19.87c1.54-16.32,15.86-28.34,36.96-28.34
				c20.48,0,36.35,8.32,36.35,36.35c0,2.62-0.31,13.71-0.31,21.25c0,13.09,0.92,20.48,2.46,27.41h-19.56
				c-0.62-2.62-1.23-6.62-1.54-10.63C842.2,526.06,833.57,529.91,821.1,529.91z M846.36,490.02c-23.72,2.46-33.27,5.24-33.27,14.48
				c0,6.01,4.77,10.93,14.32,10.93c13.25,0,18.94-7.7,18.94-21.25V490.02z"/>
			<path class="st0" d="M904.72,455.99c4.77-8.32,13.86-12.78,24.02-12.78c19.87,0,28.65,12.17,28.65,32.5v52.21h-21.25v-47.59
				c0-10.78-2.31-20.02-14.32-20.02c-14.01,0-17.09,11.4-17.09,24.49v43.12h-21.25v-82.86h21.25V455.99z"/>
			<path class="st0" d="M999.89,491.41h22.02c0.46,15.25,6.62,20.48,16.48,20.48c9.7,0,16.32-5.24,16.32-20.48v-75.16h22.02v75.16
				c0,23.56-14.01,38.5-38.35,38.5C1013.9,529.91,1000.51,513.89,999.89,491.41z"/>
			<path class="st0" d="M1145.73,516.97c-4.77,8.32-14.01,12.94-24.18,12.94c-19.87,0-27.88-12.17-27.88-32.5v-52.36h21.25v47.74
				c0,11.09,1.54,20.02,13.55,20.02c14.01,0,17.25-11.55,17.25-24.64v-43.12h21.25v82.86h-21.25V516.97z"/>
			<path class="st0" d="M1212.41,529.91c-15.86,0-29.88-9.24-29.88-24.18c0-19.71,22.02-25.57,54.52-29.26v-1.54
				c0-12.78-6.78-17.09-15.86-17.09c-9.09,0-15.86,4.31-16.33,13.4H1185c1.54-16.32,15.86-28.34,36.96-28.34
				c20.48,0,36.35,8.32,36.35,36.35c0,2.62-0.31,13.71-0.31,21.25c0,13.09,0.92,20.48,2.46,27.41h-19.56
				c-0.62-2.62-1.23-6.62-1.54-10.63C1233.51,526.06,1224.88,529.91,1212.41,529.91z M1237.67,490.02
				c-23.72,2.46-33.27,5.24-33.27,14.48c0,6.01,4.77,10.93,14.32,10.93c13.25,0,18.94-7.7,18.94-21.25V490.02z"/>
			<path class="st0" d="M1295.57,455.99c4.77-8.32,13.86-12.78,24.02-12.78c19.87,0,28.65,12.17,28.65,32.5v52.21h-21.25v-47.59
				c0-10.78-2.31-20.02-14.32-20.02c-14.01,0-17.09,11.4-17.09,24.49v43.12h-21.25v-82.86h21.25V455.99z"/>
			<path class="st0" d="M1452.8,527.91v-10.47c-5.24,9.09-15.25,12.47-23.87,12.47c-20.33,0-35.58-16.94-35.58-43.43
				c0-26.03,14.94-43.28,35.58-43.28c10.47,0,19.41,4.77,23.87,12.47v-39.43h21.25v111.66H1452.8z M1453.57,486.48
				c0-16.63-7.7-26.95-19.41-26.95c-11.55,0-18.48,10.93-18.48,27.11s6.93,26.95,18.48,26.95
				C1445.87,513.58,1453.57,503.42,1453.57,486.48z"/>
			<path class="st0" d="M1486.52,486.17c0-24.64,16.17-42.97,41.12-42.97c26.03,0,41.12,19.87,40.2,49.13h-60.06
				c0.31,12.32,8.47,21.1,20.33,21.1c6.93,0,12.63-2.31,16.94-9.55h21.87c-4.47,12.32-15.71,26.03-38.66,26.03
				C1501.15,529.91,1486.52,510.04,1486.52,486.17z M1507.93,477.7h38.35c-0.46-14.01-9.7-18.94-19.1-18.94
				C1518.56,458.76,1509.16,465.07,1507.93,477.7z"/>
			<path class="st0" d="M1647.45,416.25c35.42,0,62.06,11.55,62.06,55.75c0,44.35-26.64,55.9-62.06,55.9h-33.11V416.25H1647.45z
				 M1646.53,433.5h-10.17v77.16h10.17c20.33,0,40.2-5.08,40.2-38.66C1686.72,438.58,1666.86,433.5,1646.53,433.5z"/>
			<path class="st0" d="M1744.62,416.25v19.71h-21.25v-19.71H1744.62z M1744.62,445.05v82.86h-21.25v-82.86H1744.62z"/>
			<path class="st0" d="M1756.94,486.63c0-29.11,19.56-43.43,41.12-43.43s41.12,14.32,41.12,43.43s-19.56,43.28-41.12,43.28
				S1756.94,515.74,1756.94,486.63z M1778.5,486.63c0,17.25,7.24,26.64,19.56,26.64s19.56-9.39,19.56-26.64
				c0-17.4-7.24-26.8-19.56-26.8S1778.5,469.23,1778.5,486.63z"/>
			<path class="st0" d="M1899.39,470c-1.54-6.93-8.01-11.86-18.33-11.86c-8.47,0-14.01,2.93-14.01,8.01c0,4.47,3.23,7.7,11.7,9.55
				l11.09,2.46c17.09,3.85,31.11,7.85,31.11,24.95c0,16.63-17.09,26.8-36.5,26.8c-20.94,0-36.35-10.47-38.35-29.42h20.48
				c1.23,8.01,6.93,14.01,18.48,14.01c9.7,0,15.55-3.39,15.55-9.39c0-6.16-6.47-8.47-14.17-10.16l-12.32-2.62
				c-16.17-3.39-26.49-9.7-26.49-24.8c0-14.94,16.02-24.64,34.5-24.64c17.86,0,34.34,8.01,37.12,27.11H1899.39z"/>
		</g>
	</g>
</g>
</svg>
