<svg xmlns="http://www.w3.org/2000/svg" xmlns:xlink="http://www.w3.org/1999/xlink" version="1.1" width="1000" height="1000" viewBox="0 0 1000 1000" xml:space="preserve">
<desc>Created with Fabric.js 3.5.0</desc>
<defs>
</defs>
<rect x="0" y="0" width="100%" height="100%" fill="#ffffff"/>
<g transform="matrix(0.4647 0 0 0.4647 500.0451 500.0176)" id="112859">
<g style="" vector-effect="non-scaling-stroke">
		<g transform="matrix(1 0 0 1 -721.845 93.5591)" id="Capa_1">
<path style="stroke: none; stroke-width: 1; stroke-dasharray: none; stroke-linecap: butt; stroke-dashoffset: 0; stroke-linejoin: miter; stroke-miterlimit: 4; is-custom-font: none; font-file-url: none; fill: rgb(0,160,223); fill-rule: nonzero; opacity: 0.3;" transform=" translate(-354.215, -514.5041)" d="M 531.73 580.48 c -2.16 4.73 -2.96 10.26 -5.41 15.7 c -4.51 10.06 -14.91 16.79 -26.96 18.64 c 5.62 -9.76 14.09 -18.63 20.11 -29.43 c 6.12 -10.97 11.26 -22.86 15.21 -35.8 c 9.89 -10.8 23.04 -15.06 35.31 -21.08 c 22.85 -11.22 41.62 -30.13 49.04 -56.4 c 3.51 -12.43 2.79 -26.91 9.81 -39.23 c 2.73 -4.79 7 -8.2 9.81 -13.74 c -22.16 1.05 -37.13 9.3 -51.5 18.14 c -18.43 14.95 -34.17 34.81 -38.25 64.25 c -1.24 8.9 -0.4 21.47 -7.85 25.5 c 4.39 -22.5 3.54 -46.49 1.47 -68.66 c 16.31 -9.39 30.36 -23.51 37.27 -41.19 c 3.22 -8.27 3.7 -16.67 6.38 -25.99 c 4.87 -16.94 14.05 -29.96 25.01 -42.17 c -44.62 -5.49 -78.89 23.23 -88.27 56.4 c -1.72 6.07 -3.01 11.77 -3.43 17.65 c -0.96 13.32 3.05 23.21 5.4 32.37 c 7.64 29.86 3.43 62.03 -4.41 88.27 c -7.7 25.7 -22.17 47.41 -37.28 64.24 c -30.01 33.46 -82.33 61.8 -145.16 55.42 c -60.2 -6.12 -101.84 -35.07 -128.49 -74.54 c -19.53 -28.92 -34.71 -73.17 -27.46 -121.14 c 1.95 -12.91 8.37 -27.28 6.87 -44.14 c -2.12 -23.82 -14.22 -43.01 -29.43 -55.42 c -15.31 -12.5 -36.67 -22.32 -62.77 -18.14 c 3.02 4.38 6.8 7.7 9.81 11.77 c 6.5 8.8 11.33 19.29 14.71 30.41 c 1.73 5.7 2.53 11.64 4.41 18.15 c 5.25 18.18 14.82 29.97 27.46 40.21 c 4.26 3.45 12.32 6.92 13.24 9.81 c 1.25 3.91 -1.02 12.46 -1.47 17.66 c -1.6 18.66 0.38 34.63 3.44 51.01 c -8.87 -5.76 -7.08 -17.95 -8.34 -26.49 c -1.44 -9.77 -4.76 -18.74 -8.34 -26.48 c -14.14 -30.57 -41.21 -51.25 -81.9 -55.42 c 3.45 6.34 6.89 8.97 9.8 14.23 c 7.46 13.43 6.52 28.96 10.79 42.17 c 8.34 25.78 27 44.64 51.5 54.44 c 10.52 4.21 27.95 11.68 32.86 20.6 c 3.07 5.57 4.18 12.49 6.86 18.14 c 5.5 11.55 11.31 22.52 18.15 31.88 c 3.52 4.82 8.23 9.06 9.81 14.23 c -11.26 -1.73 -18.75 -7.07 -24.02 -14.72 c -5.02 -7.26 -6.39 -16.84 -10.79 -24.52 c -3.16 -5.51 -6.33 -11.19 -11.28 -16.18 c -3.67 -3.71 -8.9 -8.65 -14.22 -11.77 c -22 -12.9 -60.51 -13.84 -78.96 4.91 c 18.1 8.69 33.55 18.1 44.63 33.83 c 3.04 4.32 4.76 8.15 7.85 11.77 c 18.81 22.12 57.13 41.94 95.63 25.5 c 15.64 14.69 34.64 28.69 57.38 38.74 c 22.2 9.81 49.31 17.86 78.96 16.68 c 60.54 -2.42 104.2 -25.59 136.33 -56.89 c 11.4 4.62 26.67 7.46 42.18 5.4 c 22.19 -2.95 44.72 -18.05 54.92 -32.86 c 3.63 -5.25 5.79 -9.82 9.33 -14.23 c 6.91 -8.62 15.78 -16.95 25.49 -22.55 c 4.84 -2.8 11.13 -3.6 15.69 -8.34 c -10.13 -8.05 -22.99 -12.94 -37.28 -13.73 C 566.4 535.39 542.47 556.84 531.73 580.48 z" stroke-linecap="round"/>
</g>
		<g transform="matrix(1 0 0 1 -721.4468 -25.7754)" id="Capa_1">
<path style="stroke: none; stroke-width: 1; stroke-dasharray: none; stroke-linecap: butt; stroke-dashoffset: 0; stroke-linejoin: miter; stroke-miterlimit: 4; is-custom-font: none; font-file-url: none; fill: rgb(0,160,223); fill-rule: nonzero; opacity: 0.3;" transform=" translate(-354.6133, -395.1696)" d="M 252.91 619.36 c 22.87 17.88 51.44 31.38 87.91 34.4 c 50.71 4.2 92.79 -14.98 121.82 -40.13 c 29.96 -25.96 50.56 -62.28 53.99 -108.93 c 1.84 -24.9 -1.95 -48.61 -9.55 -69.27 c -12.74 -34.61 -33.39 -64.01 -69.28 -74.53 c -4.85 -1.43 -12.04 -1.71 -17.2 -3.83 c -6.67 -2.73 -8.67 -11.53 -6.21 -17.68 c 2.12 -5.32 8.81 -9.21 15.29 -8.6 c 6.24 0.58 9.18 8.33 13.85 11.46 c 21.26 14.21 50.14 -5.33 45.39 -30.1 c -4.29 -22.42 -33.99 -39.99 -60.68 -39.65 c -16.64 0.21 -31.7 6.15 -45.38 14.62 c 0 -5.57 0 -33.3 0 -33.3 h 58.76 v -57.64 h -58.76 V 136 H 324.1 v 60.2 h -59.24 v 57.64 h 59.24 c 0 0 0 25.08 0 31.66 c -28.48 -21.85 -74.74 -11.55 -92.69 8.52 c -4.33 4.84 -9.53 12.4 -10.51 21.02 c -2.76 24.19 23.59 40.86 43.96 29.14 c 6.45 -3.71 9.94 -10.72 15.29 -11.94 c 17.25 -3.94 23.29 20.66 9.08 25.8 c -5.23 1.89 -10.91 1.73 -15.29 2.87 c -34.36 8.85 -53.53 34.13 -67.36 63.06 c -7.9 16.51 -13.56 37.67 -14.33 60.19 c -1.28 36.92 8.47 68.36 22.45 91.73 C 225.33 593.66 237.33 607.18 252.91 619.36 z M 354.2 610.58 c -1.5 -0.01 -2.98 -0.06 -4.44 -0.12 c 0.57 -1.32 0.89 -2.78 0.89 -4.31 c 0 -6.01 -4.89 -10.9 -10.9 -10.9 c -6.01 0 -10.9 4.89 -10.9 10.9 c 0 0.49 0.04 0.96 0.11 1.43 c -2.44 -0.58 -4.8 -1.23 -7.1 -1.93 c -0.26 -5.78 -5.03 -10.4 -10.87 -10.4 c -2.9 0 -5.54 1.15 -7.5 3.01 c -10.65 -5.38 -18.94 -11.56 -24.62 -16.48 c -0.11 -0.09 -0.2 -0.19 -0.31 -0.28 c 0.02 -0.3 0.05 -0.59 0.05 -0.9 c 0 -6.01 -4.89 -10.9 -10.9 -10.9 c -0.27 0 -0.53 0.02 -0.79 0.04 c -2.01 -2.35 -3.89 -4.78 -5.67 -7.27 c 1.82 -1.95 2.94 -4.55 2.94 -7.42 c 0 -6.01 -4.89 -10.9 -10.9 -10.9 c -0.79 0 -1.56 0.09 -2.3 0.25 c -1.29 -2.92 -2.43 -5.92 -3.46 -8.98 c 1.11 -1.71 1.76 -3.74 1.76 -5.92 c 0 -4.14 -2.32 -7.75 -5.73 -9.59 c -0.8 -4.35 -1.39 -8.81 -1.73 -13.4 c -0.43 -5.86 -0.42 -11.74 0 -17.56 c 4.69 -1.21 8.18 -5.47 8.18 -10.54 c 0 -3.86 -2.02 -7.25 -5.06 -9.18 c 0.62 -2.51 1.34 -4.99 2.13 -7.43 c 1.79 1.29 3.98 2.06 6.34 2.06 c 6.01 0 10.9 -4.89 10.9 -10.9 c 0 -5.41 -3.97 -9.9 -9.15 -10.74 c 1.47 -2.87 2.93 -5.42 4.38 -7.69 c 2 2.26 4.91 3.69 8.16 3.69 c 6.01 0 10.9 -4.89 10.9 -10.9 c 0 -3.44 -1.61 -6.51 -4.11 -8.51 c 2.44 -1.47 4.55 -2.27 6.19 -2.8 c 0.44 -0.07 0.89 -0.15 1.35 -0.22 c 5.42 -0.89 13.35 -2.21 22.2 -5.47 c 1.86 1.47 4.19 2.35 6.74 2.35 c 6.01 0 10.9 -4.89 10.9 -10.9 c 0 -0.2 -0.02 -0.4 -0.03 -0.6 c 8.76 -6.14 15.98 -14 21.41 -22.94 c 0.94 5.05 5.38 8.89 10.7 8.89 c 5.53 0 10.1 -4.15 10.8 -9.49 c 5.43 9.14 12.73 17.17 21.61 23.43 c -0.02 0.24 -0.04 0.47 -0.04 0.72 c 0 6.01 4.89 10.9 10.9 10.9 c 2.57 0 4.93 -0.9 6.79 -2.39 c 8.9 3.29 16.88 4.62 22.32 5.51 c 0.46 0.07 0.91 0.15 1.35 0.22 c 1.58 0.51 3.6 1.27 5.93 2.64 c -2.62 1.99 -4.32 5.13 -4.32 8.67 c 0 6.01 4.89 10.9 10.9 10.9 c 3.4 0 6.43 -1.56 8.43 -4.01 c 1.49 2.32 3 4.93 4.52 7.89 c -5.26 0.77 -9.32 5.3 -9.32 10.77 c 0 6.01 4.89 10.9 10.9 10.9 c 2.44 0 4.69 -0.82 6.51 -2.18 c 0.8 2.46 1.52 4.95 2.15 7.47 c -3.19 1.9 -5.34 5.38 -5.34 9.36 c 0 5.19 3.65 9.53 8.51 10.63 c 0.42 5.79 0.43 11.64 -0.01 17.47 c -0.32 4.41 -0.88 8.69 -1.63 12.88 c -4.02 1.6 -6.87 5.53 -6.87 10.12 c 0 2.61 0.93 5.01 2.47 6.89 c -0.95 2.75 -2 5.45 -3.16 8.09 c -0.84 -0.21 -1.72 -0.33 -2.62 -0.33 c -6.01 0 -10.9 4.89 -10.9 10.9 c 0 2.97 1.2 5.67 3.14 7.64 c -1.73 2.43 -3.58 4.79 -5.53 7.09 c -0.41 -0.05 -0.82 -0.08 -1.24 -0.08 c -6.01 0 -10.9 4.89 -10.9 10.9 c 0 0.44 0.03 0.87 0.08 1.29 c -5.69 4.92 -13.97 11.07 -24.59 16.42 c -1.96 -1.89 -4.62 -3.06 -7.55 -3.06 c -5.86 0 -10.64 4.65 -10.87 10.45 c -2.29 0.7 -4.65 1.34 -7.08 1.91 c 0.07 -0.48 0.11 -0.97 0.11 -1.46 c 0 -6.01 -4.89 -10.9 -10.9 -10.9 c -6.01 0 -10.9 4.89 -10.9 10.9 c 0 1.53 0.32 2.99 0.9 4.32 C 357.07 610.53 355.65 610.58 354.2 610.58 z M 354.2 346.53 c 0.84 7 2.61 13.82 5.21 20.28 c -1.6 -0.93 -3.46 -1.47 -5.45 -1.47 c -1.74 0 -3.39 0.42 -4.85 1.15 C 351.64 360.12 353.36 353.41 354.2 346.53 C 354.2 346.53 354.2 346.53 354.2 346.53 z" stroke-linecap="round"/>
</g>
		<g transform="matrix(1 0 0 1 -707.57 -19.175)" id="Capa_1">
<path style="stroke: none; stroke-width: 1; stroke-dasharray: none; stroke-linecap: butt; stroke-dashoffset: 0; stroke-linejoin: miter; stroke-miterlimit: 4; is-custom-font: none; font-file-url: none; fill: rgb(0,160,223); fill-rule: nonzero; opacity: 0.3;" transform=" translate(-368.49, -401.77)" d="M 368.49 412.67 c 6.01 0 10.9 -4.89 10.9 -10.9 c 0 -6.01 -4.89 -10.9 -10.9 -10.9 c -6.01 0 -10.9 4.89 -10.9 10.9 C 357.6 407.78 362.48 412.67 368.49 412.67 z" stroke-linecap="round"/>
</g>
		<g transform="matrix(1 0 0 1 -736.31 -19.175)" id="Capa_1">
<path style="stroke: none; stroke-width: 1; stroke-dasharray: none; stroke-linecap: butt; stroke-dashoffset: 0; stroke-linejoin: miter; stroke-miterlimit: 4; is-custom-font: none; font-file-url: none; fill: rgb(0,160,223); fill-rule: nonzero; opacity: 0.3;" transform=" translate(-339.75, -401.77)" d="M 339.75 412.67 c 6.01 0 10.9 -4.89 10.9 -10.9 c 0 -6.01 -4.89 -10.9 -10.9 -10.9 c -6.01 0 -10.9 4.89 -10.9 10.9 C 328.85 407.78 333.74 412.67 339.75 412.67 z" stroke-linecap="round"/>
</g>
		<g transform="matrix(1 0 0 1 -779.6 6.375)" id="Capa_1">
<path style="stroke: none; stroke-width: 1; stroke-dasharray: none; stroke-linecap: butt; stroke-dashoffset: 0; stroke-linejoin: miter; stroke-miterlimit: 4; is-custom-font: none; font-file-url: none; fill: rgb(0,160,223); fill-rule: nonzero; opacity: 0.3;" transform=" translate(-296.46, -427.32)" d="M 296.46 438.22 c 6.01 0 10.9 -4.89 10.9 -10.9 c 0 -6.01 -4.89 -10.9 -10.9 -10.9 c -6.01 0 -10.9 4.89 -10.9 10.9 C 285.56 433.33 290.45 438.22 296.46 438.22 z" stroke-linecap="round"/>
</g>
		<g transform="matrix(1 0 0 1 -664.61 6.375)" id="Capa_1">
<path style="stroke: none; stroke-width: 1; stroke-dasharray: none; stroke-linecap: butt; stroke-dashoffset: 0; stroke-linejoin: miter; stroke-miterlimit: 4; is-custom-font: none; font-file-url: none; fill: rgb(0,160,223); fill-rule: nonzero; opacity: 0.3;" transform=" translate(-411.45, -427.32)" d="M 411.45 438.22 c 6.01 0 10.9 -4.89 10.9 -10.9 c 0 -6.01 -4.89 -10.9 -10.9 -10.9 c -6.01 0 -10.9 4.89 -10.9 10.9 C 400.56 433.33 405.44 438.22 411.45 438.22 z" stroke-linecap="round"/>
</g>
		<g transform="matrix(1 0 0 1 -693.35 6.375)" id="Capa_1">
<path style="stroke: none; stroke-width: 1; stroke-dasharray: none; stroke-linecap: butt; stroke-dashoffset: 0; stroke-linejoin: miter; stroke-miterlimit: 4; is-custom-font: none; font-file-url: none; fill: rgb(0,160,223); fill-rule: nonzero; opacity: 0.3;" transform=" translate(-382.71, -427.32)" d="M 371.81 427.32 c 0 6.01 4.89 10.9 10.9 10.9 c 6.01 0 10.9 -4.89 10.9 -10.9 c 0 -6.01 -4.89 -10.9 -10.9 -10.9 C 376.7 416.42 371.81 421.31 371.81 427.32 z" stroke-linecap="round"/>
</g>
		<g transform="matrix(1 0 0 1 -722.09 6.375)" id="Capa_1">
<path style="stroke: none; stroke-width: 1; stroke-dasharray: none; stroke-linecap: butt; stroke-dashoffset: 0; stroke-linejoin: miter; stroke-miterlimit: 4; is-custom-font: none; font-file-url: none; fill: rgb(0,160,223); fill-rule: nonzero; opacity: 0.3;" transform=" translate(-353.97, -427.32)" d="M 343.07 427.32 c 0 6.01 4.89 10.9 10.9 10.9 c 6.01 0 10.9 -4.89 10.9 -10.9 c 0 -6.01 -4.89 -10.9 -10.9 -10.9 C 347.96 416.42 343.07 421.31 343.07 427.32 z" stroke-linecap="round"/>
</g>
		<g transform="matrix(1 0 0 1 -750.84 6.375)" id="Capa_1">
<path style="stroke: none; stroke-width: 1; stroke-dasharray: none; stroke-linecap: butt; stroke-dashoffset: 0; stroke-linejoin: miter; stroke-miterlimit: 4; is-custom-font: none; font-file-url: none; fill: rgb(0,160,223); fill-rule: nonzero; opacity: 0.3;" transform=" translate(-325.22, -427.32)" d="M 325.22 438.22 c 6.01 0 10.9 -4.89 10.9 -10.9 c 0 -6.01 -4.89 -10.9 -10.9 -10.9 c -6.01 0 -10.9 4.89 -10.9 10.9 C 314.33 433.33 319.21 438.22 325.22 438.22 z" stroke-linecap="round"/>
</g>
		<g transform="matrix(1 0 0 1 -765.1 31.97)" id="Capa_1">
<path style="stroke: none; stroke-width: 1; stroke-dasharray: none; stroke-linecap: butt; stroke-dashoffset: 0; stroke-linejoin: miter; stroke-miterlimit: 4; is-custom-font: none; font-file-url: none; fill: rgb(0,160,223); fill-rule: nonzero; opacity: 0.3;" transform=" translate(-310.96, -452.915)" d="M 301.11 448.29 c -0.68 1.42 -1.07 3 -1.07 4.67 c 0 6.01 4.89 10.9 10.9 10.9 c 4.51 0 8.39 -2.75 10.04 -6.67 c 0.58 -1.33 0.9 -2.79 0.9 -4.32 c 0 -6.01 -4.89 -10.9 -10.9 -10.9 C 306.61 441.97 302.84 444.57 301.11 448.29 z" stroke-linecap="round"/>
</g>
		<g transform="matrix(1 0 0 1 -793.85 31.97)" id="Capa_1">
<path style="stroke: none; stroke-width: 1; stroke-dasharray: none; stroke-linecap: butt; stroke-dashoffset: 0; stroke-linejoin: miter; stroke-miterlimit: 4; is-custom-font: none; font-file-url: none; fill: rgb(0,160,223); fill-rule: nonzero; opacity: 0.3;" transform=" translate(-282.21, -452.915)" d="M 282.18 463.86 c 3.77 0 7.1 -1.92 9.05 -4.84 c 1.2 -1.75 1.91 -3.87 1.91 -6.15 c 0 -6.01 -4.89 -10.9 -10.9 -10.9 c -3.77 0 -7.1 1.93 -9.06 4.85 c -1.2 1.75 -1.9 3.86 -1.9 6.14 C 271.28 458.97 276.17 463.86 282.18 463.86 z" stroke-linecap="round"/>
</g>
		<g transform="matrix(1 0 0 1 -650.08 31.925)" id="Capa_1">
<path style="stroke: none; stroke-width: 1; stroke-dasharray: none; stroke-linecap: butt; stroke-dashoffset: 0; stroke-linejoin: miter; stroke-miterlimit: 4; is-custom-font: none; font-file-url: none; fill: rgb(0,160,223); fill-rule: nonzero; opacity: 0.3;" transform=" translate(-425.98, -452.87)" d="M 415.08 452.87 c 0 6.01 4.89 10.9 10.9 10.9 c 6.01 0 10.9 -4.89 10.9 -10.9 c 0 -6.01 -4.89 -10.9 -10.9 -10.9 C 419.97 441.97 415.08 446.86 415.08 452.87 z" stroke-linecap="round"/>
</g>
		<g transform="matrix(1 0 0 1 -678.82 31.925)" id="Capa_1">
<path style="stroke: none; stroke-width: 1; stroke-dasharray: none; stroke-linecap: butt; stroke-dashoffset: 0; stroke-linejoin: miter; stroke-miterlimit: 4; is-custom-font: none; font-file-url: none; fill: rgb(0,160,223); fill-rule: nonzero; opacity: 0.3;" transform=" translate(-397.24, -452.87)" d="M 386.34 452.87 c 0 6.01 4.89 10.9 10.9 10.9 c 6.01 0 10.9 -4.89 10.9 -10.9 c 0 -6.01 -4.89 -10.9 -10.9 -10.9 C 391.23 441.97 386.34 446.86 386.34 452.87 z" stroke-linecap="round"/>
</g>
		<g transform="matrix(1 0 0 1 -707.57 31.925)" id="Capa_1">
<path style="stroke: none; stroke-width: 1; stroke-dasharray: none; stroke-linecap: butt; stroke-dashoffset: 0; stroke-linejoin: miter; stroke-miterlimit: 4; is-custom-font: none; font-file-url: none; fill: rgb(0,160,223); fill-rule: nonzero; opacity: 0.3;" transform=" translate(-368.49, -452.87)" d="M 368.49 441.97 c -6.01 0 -10.9 4.89 -10.9 10.9 c 0 6.01 4.89 10.9 10.9 10.9 c 6.01 0 10.9 -4.89 10.9 -10.9 C 379.39 446.86 374.5 441.97 368.49 441.97 z" stroke-linecap="round"/>
</g>
		<g transform="matrix(1 0 0 1 -736.34 31.97)" id="Capa_1">
<path style="stroke: none; stroke-width: 1; stroke-dasharray: none; stroke-linecap: butt; stroke-dashoffset: 0; stroke-linejoin: miter; stroke-miterlimit: 4; is-custom-font: none; font-file-url: none; fill: rgb(0,160,223); fill-rule: nonzero; opacity: 0.3;" transform=" translate(-339.72, -452.915)" d="M 339.75 441.97 c -3.77 0 -7.1 1.93 -9.06 4.85 c -1.2 1.75 -1.9 3.86 -1.9 6.14 c 0 6.01 4.89 10.9 10.9 10.9 c 3.77 0 7.1 -1.93 9.06 -4.85 c 1.2 -1.75 1.9 -3.86 1.9 -6.14 C 350.65 446.86 345.76 441.97 339.75 441.97 z" stroke-linecap="round"/>
</g>
		<g transform="matrix(1 0 0 1 -635.86 57.465)" id="Capa_1">
<path style="stroke: none; stroke-width: 1; stroke-dasharray: none; stroke-linecap: butt; stroke-dashoffset: 0; stroke-linejoin: miter; stroke-miterlimit: 4; is-custom-font: none; font-file-url: none; fill: rgb(0,160,223); fill-rule: nonzero; opacity: 0.3;" transform=" translate(-440.2, -478.41)" d="M 429.3 478.41 c 0 6.01 4.89 10.9 10.9 10.9 c 6.01 0 10.9 -4.89 10.9 -10.9 c 0 -6.01 -4.89 -10.9 -10.9 -10.9 C 434.19 467.52 429.3 472.41 429.3 478.41 z" stroke-linecap="round"/>
</g>
		<g transform="matrix(1 0 0 1 -779.6 57.465)" id="Capa_1">
<path style="stroke: none; stroke-width: 1; stroke-dasharray: none; stroke-linecap: butt; stroke-dashoffset: 0; stroke-linejoin: miter; stroke-miterlimit: 4; is-custom-font: none; font-file-url: none; fill: rgb(0,160,223); fill-rule: nonzero; opacity: 0.3;" transform=" translate(-296.46, -478.41)" d="M 307.36 478.41 c 0 -6.01 -4.89 -10.9 -10.9 -10.9 c -6.01 0 -10.9 4.89 -10.9 10.9 c 0 6.01 4.89 10.9 10.9 10.9 C 302.47 489.31 307.36 484.42 307.36 478.41 z" stroke-linecap="round"/>
</g>
		<g transform="matrix(1 0 0 1 -808.26 57.465)" id="Capa_1">
<path style="stroke: none; stroke-width: 1; stroke-dasharray: none; stroke-linecap: butt; stroke-dashoffset: 0; stroke-linejoin: miter; stroke-miterlimit: 4; is-custom-font: none; font-file-url: none; fill: rgb(0,160,223); fill-rule: nonzero; opacity: 0.3;" transform=" translate(-267.8, -478.41)" d="M 267.72 489.31 c 0.03 0 0.05 0 0.08 0 c 0.03 0 0.05 0 0.08 0 c 6.01 0 10.9 -4.89 10.9 -10.9 c 0 -6.01 -4.89 -10.9 -10.9 -10.9 c -0.03 0 -0.05 0 -0.08 0 c -0.03 0 -0.05 0 -0.08 0 c -6.01 0 -10.9 4.89 -10.9 10.9 C 256.82 484.42 261.71 489.31 267.72 489.31 z" stroke-linecap="round"/>
</g>
		<g transform="matrix(1 0 0 1 -664.61 57.475)" id="Capa_1">
<path style="stroke: none; stroke-width: 1; stroke-dasharray: none; stroke-linecap: butt; stroke-dashoffset: 0; stroke-linejoin: miter; stroke-miterlimit: 4; is-custom-font: none; font-file-url: none; fill: rgb(0,160,223); fill-rule: nonzero; opacity: 0.3;" transform=" translate(-411.45, -478.42)" d="M 411.45 467.52 c -6.01 0 -10.9 4.89 -10.9 10.9 c 0 6.01 4.89 10.9 10.9 10.9 c 6.01 0 10.9 -4.89 10.9 -10.9 C 422.35 472.41 417.46 467.52 411.45 467.52 z" stroke-linecap="round"/>
</g>
		<g transform="matrix(1 0 0 1 -693.35 57.475)" id="Capa_1">
<path style="stroke: none; stroke-width: 1; stroke-dasharray: none; stroke-linecap: butt; stroke-dashoffset: 0; stroke-linejoin: miter; stroke-miterlimit: 4; is-custom-font: none; font-file-url: none; fill: rgb(0,160,223); fill-rule: nonzero; opacity: 0.3;" transform=" translate(-382.71, -478.42)" d="M 382.71 467.52 c -6.01 0 -10.9 4.89 -10.9 10.9 c 0 6.01 4.89 10.9 10.9 10.9 c 6.01 0 10.9 -4.89 10.9 -10.9 C 393.61 472.41 388.72 467.52 382.71 467.52 z" stroke-linecap="round"/>
</g>
		<g transform="matrix(1 0 0 1 -722.09 57.465)" id="Capa_1">
<path style="stroke: none; stroke-width: 1; stroke-dasharray: none; stroke-linecap: butt; stroke-dashoffset: 0; stroke-linejoin: miter; stroke-miterlimit: 4; is-custom-font: none; font-file-url: none; fill: rgb(0,160,223); fill-rule: nonzero; opacity: 0.3;" transform=" translate(-353.97, -478.41)" d="M 343.07 478.41 c 0 6.01 4.89 10.9 10.9 10.9 c 6.01 0 10.9 -4.89 10.9 -10.9 c 0 -6.01 -4.89 -10.9 -10.9 -10.9 C 347.96 467.52 343.07 472.41 343.07 478.41 z" stroke-linecap="round"/>
</g>
		<g transform="matrix(1 0 0 1 -750.83 57.465)" id="Capa_1">
<path style="stroke: none; stroke-width: 1; stroke-dasharray: none; stroke-linecap: butt; stroke-dashoffset: 0; stroke-linejoin: miter; stroke-miterlimit: 4; is-custom-font: none; font-file-url: none; fill: rgb(0,160,223); fill-rule: nonzero; opacity: 0.3;" transform=" translate(-325.23, -478.41)" d="M 314.33 478.41 c 0 6.01 4.89 10.9 10.9 10.9 c 6.01 0 10.9 -4.89 10.9 -10.9 c 0 -6.01 -4.89 -10.9 -10.9 -10.9 C 319.21 467.52 314.33 472.41 314.33 478.41 z" stroke-linecap="round"/>
</g>
		<g transform="matrix(0.9732 -0.2298 0.2298 0.9732 -621.3387 82.9702)" id="Capa_1">
<ellipse style="stroke: none; stroke-width: 1; stroke-dasharray: none; stroke-linecap: butt; stroke-dashoffset: 0; stroke-linejoin: miter; stroke-miterlimit: 4; is-custom-font: none; font-file-url: none; fill: rgb(0,160,223); fill-rule: nonzero; opacity: 0.3;" cx="0" cy="0" rx="10.9" ry="10.9"/>
</g>
		<g transform="matrix(0.7071 -0.7071 0.7071 0.7071 -765.0774 83.0116)" id="Capa_1">
<ellipse style="stroke: none; stroke-width: 1; stroke-dasharray: none; stroke-linecap: butt; stroke-dashoffset: 0; stroke-linejoin: miter; stroke-miterlimit: 4; is-custom-font: none; font-file-url: none; fill: rgb(0,160,223); fill-rule: nonzero; opacity: 0.3;" cx="0" cy="0" rx="10.9" ry="10.9"/>
</g>
		<g transform="matrix(1 0 0 1 -793.68 83.025)" id="Capa_1">
<path style="stroke: none; stroke-width: 1; stroke-dasharray: none; stroke-linecap: butt; stroke-dashoffset: 0; stroke-linejoin: miter; stroke-miterlimit: 4; is-custom-font: none; font-file-url: none; fill: rgb(0,160,223); fill-rule: nonzero; opacity: 0.3;" transform=" translate(-282.38, -503.97)" d="M 282.38 493.07 c 0 0 -0.01 0 -0.01 0 c -6.01 0 -10.9 4.89 -10.9 10.9 c 0 6.01 4.89 10.9 10.9 10.9 c 0 0 0.01 0 0.01 0 c 0 0 0.01 0 0.01 0 c 6.01 0 10.9 -4.89 10.9 -10.9 c 0 -6.01 -4.89 -10.9 -10.9 -10.9 C 282.39 493.07 282.39 493.07 282.38 493.07 z" stroke-linecap="round"/>
</g>
		<g transform="matrix(0.7071 -0.7071 0.7071 0.7071 -822.4155 83.0147)" id="Capa_1">
<ellipse style="stroke: none; stroke-width: 1; stroke-dasharray: none; stroke-linecap: butt; stroke-dashoffset: 0; stroke-linejoin: miter; stroke-miterlimit: 4; is-custom-font: none; font-file-url: none; fill: rgb(0,160,223); fill-rule: nonzero; opacity: 0.3;" cx="0" cy="0" rx="10.9" ry="10.9"/>
</g>
		<g transform="matrix(1 0 0 1 -650.08 83.015)" id="Capa_1">
<path style="stroke: none; stroke-width: 1; stroke-dasharray: none; stroke-linecap: butt; stroke-dashoffset: 0; stroke-linejoin: miter; stroke-miterlimit: 4; is-custom-font: none; font-file-url: none; fill: rgb(0,160,223); fill-rule: nonzero; opacity: 0.3;" transform=" translate(-425.98, -503.96)" d="M 436.88 503.96 c 0 -6.01 -4.89 -10.9 -10.9 -10.9 c -6.01 0 -10.9 4.89 -10.9 10.9 c 0 6.01 4.89 10.9 10.9 10.9 C 431.99 514.86 436.88 509.97 436.88 503.96 z" stroke-linecap="round"/>
</g>
		<g transform="matrix(0.7071 -0.7071 0.7071 0.7071 -678.8284 83.0113)" id="Capa_1">
<ellipse style="stroke: none; stroke-width: 1; stroke-dasharray: none; stroke-linecap: butt; stroke-dashoffset: 0; stroke-linejoin: miter; stroke-miterlimit: 4; is-custom-font: none; font-file-url: none; fill: rgb(0,160,223); fill-rule: nonzero; opacity: 0.3;" cx="0" cy="0" rx="10.9" ry="10.9"/>
</g>
		<g transform="matrix(1 0 0 1 -707.57 83.015)" id="Capa_1">
<path style="stroke: none; stroke-width: 1; stroke-dasharray: none; stroke-linecap: butt; stroke-dashoffset: 0; stroke-linejoin: miter; stroke-miterlimit: 4; is-custom-font: none; font-file-url: none; fill: rgb(0,160,223); fill-rule: nonzero; opacity: 0.3;" transform=" translate(-368.49, -503.96)" d="M 379.39 503.96 c 0 -6.01 -4.89 -10.9 -10.9 -10.9 c -6.01 0 -10.9 4.89 -10.9 10.9 c 0 6.01 4.89 10.9 10.9 10.9 C 374.5 514.86 379.39 509.97 379.39 503.96 z" stroke-linecap="round"/>
</g>
		<g transform="matrix(0.9732 -0.2298 0.2298 0.9732 -736.3024 82.9741)" id="Capa_1">
<ellipse style="stroke: none; stroke-width: 1; stroke-dasharray: none; stroke-linecap: butt; stroke-dashoffset: 0; stroke-linejoin: miter; stroke-miterlimit: 4; is-custom-font: none; font-file-url: none; fill: rgb(0,160,223); fill-rule: nonzero; opacity: 0.3;" cx="0" cy="0" rx="10.9" ry="10.9"/>
</g>
		<g transform="matrix(1 0 0 1 -635.86 108.565)" id="Capa_1">
<path style="stroke: none; stroke-width: 1; stroke-dasharray: none; stroke-linecap: butt; stroke-dashoffset: 0; stroke-linejoin: miter; stroke-miterlimit: 4; is-custom-font: none; font-file-url: none; fill: rgb(0,160,223); fill-rule: nonzero; opacity: 0.3;" transform=" translate(-440.2, -529.51)" d="M 440.2 518.61 c -6.01 0 -10.9 4.89 -10.9 10.9 c 0 6.01 4.89 10.9 10.9 10.9 c 6.01 0 10.9 -4.89 10.9 -10.9 C 451.09 523.5 446.2 518.61 440.2 518.61 z" stroke-linecap="round"/>
</g>
		<g transform="matrix(1 0 0 1 -779.6 108.565)" id="Capa_1">
<path style="stroke: none; stroke-width: 1; stroke-dasharray: none; stroke-linecap: butt; stroke-dashoffset: 0; stroke-linejoin: miter; stroke-miterlimit: 4; is-custom-font: none; font-file-url: none; fill: rgb(0,160,223); fill-rule: nonzero; opacity: 0.3;" transform=" translate(-296.46, -529.51)" d="M 296.46 540.41 c 6.01 0 10.9 -4.89 10.9 -10.9 c 0 -6.01 -4.89 -10.9 -10.9 -10.9 c -6.01 0 -10.9 4.89 -10.9 10.9 C 285.56 535.52 290.45 540.41 296.46 540.41 z" stroke-linecap="round"/>
</g>
		<g transform="matrix(1 0 0 1 -808.63 108.565)" id="Capa_1">
<path style="stroke: none; stroke-width: 1; stroke-dasharray: none; stroke-linecap: butt; stroke-dashoffset: 0; stroke-linejoin: miter; stroke-miterlimit: 4; is-custom-font: none; font-file-url: none; fill: rgb(0,160,223); fill-rule: nonzero; opacity: 0.3;" transform=" translate(-267.43, -529.51)" d="M 278.61 529.51 c 0 -6.01 -4.89 -10.9 -10.9 -10.9 c -0.1 0 -0.19 0.01 -0.28 0.01 c -0.09 0 -0.19 -0.01 -0.28 -0.01 c -6.01 0 -10.9 4.89 -10.9 10.9 c 0 6.01 4.89 10.9 10.9 10.9 c 0.1 0 0.19 -0.01 0.28 -0.01 c 0.09 0 0.19 0.01 0.28 0.01 C 273.73 540.41 278.61 535.52 278.61 529.51 z" stroke-linecap="round"/>
</g>
		<g transform="matrix(1 0 0 1 -664.6 108.565)" id="Capa_1">
<path style="stroke: none; stroke-width: 1; stroke-dasharray: none; stroke-linecap: butt; stroke-dashoffset: 0; stroke-linejoin: miter; stroke-miterlimit: 4; is-custom-font: none; font-file-url: none; fill: rgb(0,160,223); fill-rule: nonzero; opacity: 0.3;" transform=" translate(-411.46, -529.51)" d="M 400.56 529.51 c 0 6.01 4.89 10.9 10.9 10.9 c 6.01 0 10.9 -4.89 10.9 -10.9 c 0 -6.01 -4.89 -10.9 -10.9 -10.9 C 405.44 518.61 400.56 523.5 400.56 529.51 z" stroke-linecap="round"/>
</g>
		<g transform="matrix(1 0 0 1 -693.35 108.565)" id="Capa_1">
<path style="stroke: none; stroke-width: 1; stroke-dasharray: none; stroke-linecap: butt; stroke-dashoffset: 0; stroke-linejoin: miter; stroke-miterlimit: 4; is-custom-font: none; font-file-url: none; fill: rgb(0,160,223); fill-rule: nonzero; opacity: 0.3;" transform=" translate(-382.71, -529.51)" d="M 382.71 540.41 c 6.01 0 10.9 -4.89 10.9 -10.9 c 0 -6.01 -4.89 -10.9 -10.9 -10.9 c -6.01 0 -10.9 4.89 -10.9 10.9 C 371.81 535.52 376.7 540.41 382.71 540.41 z" stroke-linecap="round"/>
</g>
		<g transform="matrix(1 0 0 1 -722.09 108.565)" id="Capa_1">
<path style="stroke: none; stroke-width: 1; stroke-dasharray: none; stroke-linecap: butt; stroke-dashoffset: 0; stroke-linejoin: miter; stroke-miterlimit: 4; is-custom-font: none; font-file-url: none; fill: rgb(0,160,223); fill-rule: nonzero; opacity: 0.3;" transform=" translate(-353.97, -529.51)" d="M 353.97 540.41 c 6.01 0 10.9 -4.89 10.9 -10.9 c 0 -6.01 -4.89 -10.9 -10.9 -10.9 c -6.01 0 -10.9 4.89 -10.9 10.9 C 343.07 535.52 347.96 540.41 353.97 540.41 z" stroke-linecap="round"/>
</g>
		<g transform="matrix(1 0 0 1 -750.84 108.565)" id="Capa_1">
<path style="stroke: none; stroke-width: 1; stroke-dasharray: none; stroke-linecap: butt; stroke-dashoffset: 0; stroke-linejoin: miter; stroke-miterlimit: 4; is-custom-font: none; font-file-url: none; fill: rgb(0,160,223); fill-rule: nonzero; opacity: 0.3;" transform=" translate(-325.22, -529.51)" d="M 325.22 540.41 c 6.01 0 10.9 -4.89 10.9 -10.9 c 0 -6.01 -4.89 -10.9 -10.9 -10.9 c -6.01 0 -10.9 4.89 -10.9 10.9 C 314.33 535.52 319.21 540.41 325.22 540.41 z" stroke-linecap="round"/>
</g>
		<g transform="matrix(0.9732 -0.2298 0.2298 0.9732 -765.058 134.0729)" id="Capa_1">
<ellipse style="stroke: none; stroke-width: 1; stroke-dasharray: none; stroke-linecap: butt; stroke-dashoffset: 0; stroke-linejoin: miter; stroke-miterlimit: 4; is-custom-font: none; font-file-url: none; fill: rgb(0,160,223); fill-rule: nonzero; opacity: 0.3;" cx="0" cy="0" rx="10.9" ry="10.9"/>
</g>
		<g transform="matrix(1 0 0 1 -793.92 134.115)" id="Capa_1">
<path style="stroke: none; stroke-width: 1; stroke-dasharray: none; stroke-linecap: butt; stroke-dashoffset: 0; stroke-linejoin: miter; stroke-miterlimit: 4; is-custom-font: none; font-file-url: none; fill: rgb(0,160,223); fill-rule: nonzero; opacity: 0.3;" transform=" translate(-282.14, -555.06)" d="M 293.14 555.06 c 0 -6.01 -4.89 -10.9 -10.9 -10.9 c -0.03 0 -0.06 0 -0.1 0.01 c -0.03 0 -0.06 -0.01 -0.1 -0.01 c -6.01 0 -10.9 4.89 -10.9 10.9 c 0 6.01 4.89 10.9 10.9 10.9 c 0.03 0 0.06 0 0.1 0 s 0.06 0 0.1 0 C 288.25 565.95 293.14 561.06 293.14 555.06 z" stroke-linecap="round"/>
</g>
		<g transform="matrix(1 0 0 1 -650.08 134.115)" id="Capa_1">
<path style="stroke: none; stroke-width: 1; stroke-dasharray: none; stroke-linecap: butt; stroke-dashoffset: 0; stroke-linejoin: miter; stroke-miterlimit: 4; is-custom-font: none; font-file-url: none; fill: rgb(0,160,223); fill-rule: nonzero; opacity: 0.3;" transform=" translate(-425.98, -555.06)" d="M 425.98 544.16 c -6.01 0 -10.9 4.89 -10.9 10.9 c 0 6.01 4.89 10.9 10.9 10.9 c 6.01 0 10.9 -4.89 10.9 -10.9 C 436.88 549.05 431.99 544.16 425.98 544.16 z" stroke-linecap="round"/>
</g>
		<g transform="matrix(0.9732 -0.2298 0.2298 0.9732 -678.8122 134.0687)" id="Capa_1">
<ellipse style="stroke: none; stroke-width: 1; stroke-dasharray: none; stroke-linecap: butt; stroke-dashoffset: 0; stroke-linejoin: miter; stroke-miterlimit: 4; is-custom-font: none; font-file-url: none; fill: rgb(0,160,223); fill-rule: nonzero; opacity: 0.3;" cx="0" cy="0" rx="10.9" ry="10.9"/>
</g>
		<g transform="matrix(1 0 0 1 -707.57 134.115)" id="Capa_1">
<path style="stroke: none; stroke-width: 1; stroke-dasharray: none; stroke-linecap: butt; stroke-dashoffset: 0; stroke-linejoin: miter; stroke-miterlimit: 4; is-custom-font: none; font-file-url: none; fill: rgb(0,160,223); fill-rule: nonzero; opacity: 0.3;" transform=" translate(-368.49, -555.06)" d="M 379.39 555.06 c 0 -6.01 -4.89 -10.9 -10.9 -10.9 c -6.01 0 -10.9 4.89 -10.9 10.9 c 0 6.01 4.89 10.9 10.9 10.9 C 374.5 565.95 379.39 561.06 379.39 555.06 z" stroke-linecap="round"/>
</g>
		<g transform="matrix(0.7071 -0.7071 0.7071 0.7071 -736.3128 134.1113)" id="Capa_1">
<ellipse style="stroke: none; stroke-width: 1; stroke-dasharray: none; stroke-linecap: butt; stroke-dashoffset: 0; stroke-linejoin: miter; stroke-miterlimit: 4; is-custom-font: none; font-file-url: none; fill: rgb(0,160,223); fill-rule: nonzero; opacity: 0.3;" cx="0" cy="0" rx="10.9" ry="10.9"/>
</g>
		<g transform="matrix(1 0 0 1 -779.6 159.665)" id="Capa_1">
<path style="stroke: none; stroke-width: 1; stroke-dasharray: none; stroke-linecap: butt; stroke-dashoffset: 0; stroke-linejoin: miter; stroke-miterlimit: 4; is-custom-font: none; font-file-url: none; fill: rgb(0,160,223); fill-rule: nonzero; opacity: 0.3;" transform=" translate(-296.46, -580.61)" d="M 296.46 569.71 c -6.01 0 -10.9 4.89 -10.9 10.9 s 4.89 10.9 10.9 10.9 c 6.01 0 10.9 -4.89 10.9 -10.9 S 302.47 569.71 296.46 569.71 z" stroke-linecap="round"/>
</g>
		<g transform="matrix(0.9998 -0.0185 0.0185 0.9998 -664.627 159.6426)" id="Capa_1">
<ellipse style="stroke: none; stroke-width: 1; stroke-dasharray: none; stroke-linecap: butt; stroke-dashoffset: 0; stroke-linejoin: miter; stroke-miterlimit: 4; is-custom-font: none; font-file-url: none; fill: rgb(0,160,223); fill-rule: nonzero; opacity: 0.3;" cx="0" cy="0" rx="10.9" ry="10.9"/>
</g>
		<g transform="matrix(0.9998 -0.0185 0.0185 0.9998 -693.3662 159.6422)" id="Capa_1">
<ellipse style="stroke: none; stroke-width: 1; stroke-dasharray: none; stroke-linecap: butt; stroke-dashoffset: 0; stroke-linejoin: miter; stroke-miterlimit: 4; is-custom-font: none; font-file-url: none; fill: rgb(0,160,223); fill-rule: nonzero; opacity: 0.3;" cx="0" cy="0" rx="10.9" ry="10.9"/>
</g>
		<g transform="matrix(1 0 0 1 -722.09 159.655)" id="Capa_1">
<circle style="stroke: none; stroke-width: 1; stroke-dasharray: none; stroke-linecap: butt; stroke-dashoffset: 0; stroke-linejoin: miter; stroke-miterlimit: 4; is-custom-font: none; font-file-url: none; fill: rgb(0,160,223); fill-rule: nonzero; opacity: 0.3;" cx="0" cy="0" r="10.9"/>
</g>
		<g transform="matrix(1 0 0 1 -750.84 159.655)" id="Capa_1">
<circle style="stroke: none; stroke-width: 1; stroke-dasharray: none; stroke-linecap: butt; stroke-dashoffset: 0; stroke-linejoin: miter; stroke-miterlimit: 4; is-custom-font: none; font-file-url: none; fill: rgb(0,160,223); fill-rule: nonzero; opacity: 0.3;" cx="0" cy="0" r="10.9"/>
</g>
		<g transform="matrix(1 0 0 1 -349.29 -66.925)" id="Capa_1">
<path style="stroke: none; stroke-width: 1; stroke-dasharray: none; stroke-linecap: butt; stroke-dashoffset: 0; stroke-linejoin: miter; stroke-miterlimit: 4; is-custom-font: none; font-file-url: none; fill: rgb(0,160,223); fill-rule: nonzero; opacity: 0.3;" transform=" translate(-726.77, -354.02)" d="M 755.8 319.58 v 68.88 h -13.59 v -29.74 h -30.88 v 29.74 h -13.59 v -68.88 h 13.59 v 28.12 h 30.88 v -28.12 H 755.8 z" stroke-linecap="round"/>
</g>
		<g transform="matrix(1 0 0 1 -286.34 -57.99)" id="Capa_1">
<path style="stroke: none; stroke-width: 1; stroke-dasharray: none; stroke-linecap: butt; stroke-dashoffset: 0; stroke-linejoin: miter; stroke-miterlimit: 4; is-custom-font: none; font-file-url: none; fill: rgb(0,160,223); fill-rule: nonzero; opacity: 0.3;" transform=" translate(-789.72, -362.955)" d="M 764.35 363 c 0 -17.96 12.07 -26.79 25.37 -26.79 c 13.3 0 25.37 8.84 25.37 26.79 c 0 17.96 -12.07 26.7 -25.37 26.7 C 776.41 389.69 764.35 380.95 764.35 363 z M 777.65 363 c 0 10.64 4.46 16.44 12.06 16.44 c 7.6 0 12.07 -5.8 12.07 -16.44 c 0 -10.74 -4.46 -16.53 -12.07 -16.53 C 782.11 346.47 777.65 352.26 777.65 363 z" stroke-linecap="round"/>
</g>
		<g transform="matrix(1 0 0 1 -232.955 -58.08)" id="Capa_1">
<path style="stroke: none; stroke-width: 1; stroke-dasharray: none; stroke-linecap: butt; stroke-dashoffset: 0; stroke-linejoin: miter; stroke-miterlimit: 4; is-custom-font: none; font-file-url: none; fill: rgb(0,160,223); fill-rule: nonzero; opacity: 0.3;" transform=" translate(-843.105, -362.865)" d="M 852.89 352.74 c -0.95 -4.27 -4.94 -7.31 -11.31 -7.31 c -5.22 0 -8.64 1.8 -8.64 4.94 c 0 2.76 2 4.75 7.22 5.89 l 6.84 1.52 c 10.55 2.38 19.19 4.85 19.19 15.39 c 0 10.26 -10.54 16.53 -22.51 16.53 c -12.92 0 -22.42 -6.46 -23.66 -18.15 h 12.64 c 0.76 4.94 4.28 8.65 11.4 8.65 c 5.98 0 9.59 -2.09 9.59 -5.79 c 0 -3.8 -3.99 -5.23 -8.74 -6.27 l -7.6 -1.62 c -9.98 -2.09 -16.34 -5.98 -16.34 -15.29 c 0 -9.21 9.88 -15.2 21.28 -15.2 c 11.02 0 21.19 4.94 22.9 16.72 H 852.89 z" stroke-linecap="round"/>
</g>
		<g transform="matrix(1 0 0 1 -177.285 -50.305)" id="Capa_1">
<path style="stroke: none; stroke-width: 1; stroke-dasharray: none; stroke-linecap: butt; stroke-dashoffset: 0; stroke-linejoin: miter; stroke-miterlimit: 4; is-custom-font: none; font-file-url: none; fill: rgb(0,160,223); fill-rule: nonzero; opacity: 0.3;" transform=" translate(-898.775, -370.64)" d="M 873.88 405.08 v -67.74 h 13.11 v 6.55 c 2.75 -4.75 8.27 -7.69 14.73 -7.69 c 12.73 0 21.95 10.64 21.95 26.7 c 0 16.34 -9.5 26.79 -22.04 26.79 c -5.32 0 -11.4 -2.09 -14.63 -7.7 v 23.08 H 873.88 z M 909.89 363 c 0 -9.98 -4.28 -16.72 -11.4 -16.72 c -7.22 0 -11.97 6.37 -11.97 16.63 c 0 10.45 4.75 16.72 11.97 16.72 C 905.61 379.62 909.89 372.97 909.89 363 z" stroke-linecap="round"/>
</g>
		<g transform="matrix(1 0 0 1 -137.485 -66.925)" id="Capa_1">
<path style="stroke: none; stroke-width: 1; stroke-dasharray: none; stroke-linecap: butt; stroke-dashoffset: 0; stroke-linejoin: miter; stroke-miterlimit: 4; is-custom-font: none; font-file-url: none; fill: rgb(0,160,223); fill-rule: nonzero; opacity: 0.3;" transform=" translate(-938.575, -354.02)" d="M 945.13 319.58 v 12.16 h -13.11 v -12.16 H 945.13 z M 945.13 337.35 v 51.11 h -13.11 v -51.11 H 945.13 z" stroke-linecap="round"/>
</g>
		<g transform="matrix(1 0 0 1 -109.175 -64.97)" id="Capa_1">
<path style="stroke: none; stroke-width: 1; stroke-dasharray: none; stroke-linecap: butt; stroke-dashoffset: 0; stroke-linejoin: miter; stroke-miterlimit: 4; is-custom-font: none; font-file-url: none; fill: rgb(0,160,223); fill-rule: nonzero; opacity: 0.3;" transform=" translate(-966.885, -355.975)" d="M 958.62 323.48 h 13.11 v 13.87 h 10.64 v 9.03 h -10.64 v 26.41 c 0 5.22 1.8 6.27 6.46 6.27 h 3.99 v 9.41 h -9.6 c -11.68 0 -13.96 -3.61 -13.96 -13.78 v -28.31 h -7.22 v -9.03 h 7.22 V 323.48 z" stroke-linecap="round"/>
</g>
		<g transform="matrix(1 0 0 1 -63.475 -58.095)" id="Capa_1">
<path style="stroke: none; stroke-width: 1; stroke-dasharray: none; stroke-linecap: butt; stroke-dashoffset: 0; stroke-linejoin: miter; stroke-miterlimit: 4; is-custom-font: none; font-file-url: none; fill: rgb(0,160,223); fill-rule: nonzero; opacity: 0.3;" transform=" translate(-1012.585, -362.85)" d="M 1006.98 389.69 c -9.79 0 -18.43 -5.7 -18.43 -14.92 c 0 -12.16 13.58 -15.77 33.63 -18.05 v -0.95 c 0 -7.88 -4.18 -10.55 -9.79 -10.55 c -5.61 0 -9.79 2.66 -10.07 8.27 h -12.25 c 0.95 -10.07 9.79 -17.48 22.8 -17.48 c 12.64 0 22.42 5.13 22.42 22.42 c 0 1.62 -0.19 8.46 -0.19 13.11 c 0 8.08 0.57 12.64 1.52 16.91 h -12.07 c -0.38 -1.62 -0.76 -4.08 -0.95 -6.55 C 1019.99 387.32 1014.67 389.69 1006.98 389.69 z M 1022.56 365.09 c -14.63 1.52 -20.52 3.23 -20.52 8.93 c 0 3.71 2.95 6.75 8.84 6.75 c 8.17 0 11.69 -4.75 11.69 -13.11 V 365.09 z" stroke-linecap="round"/>
</g>
		<g transform="matrix(1 0 0 1 -23.395 -66.925)" id="Capa_1">
<path style="stroke: none; stroke-width: 1; stroke-dasharray: none; stroke-linecap: butt; stroke-dashoffset: 0; stroke-linejoin: miter; stroke-miterlimit: 4; is-custom-font: none; font-file-url: none; fill: rgb(0,160,223); fill-rule: nonzero; opacity: 0.3;" transform=" translate(-1052.665, -354.02)" d="M 1059.22 388.46 h -13.11 v -68.88 h 13.11 V 388.46 z" stroke-linecap="round"/>
</g>
		<g transform="matrix(1 0 0 1 -357.595 187.97)" id="Capa_1">
<path style="stroke: none; stroke-width: 1; stroke-dasharray: none; stroke-linecap: butt; stroke-dashoffset: 0; stroke-linejoin: miter; stroke-miterlimit: 4; is-custom-font: none; font-file-url: none; fill: rgb(0,160,223); fill-rule: nonzero; opacity: 0.3;" transform=" translate(-718.465, -608.915)" d="M 712.97 590.11 h -17.01 v -8.85 h 45.01 v 8.85 h -17.09 v 46.46 h -10.91 V 590.11 z" stroke-linecap="round"/>
</g>
		<g transform="matrix(1 0 0 1 -318.98 195.14)" id="Capa_1">
<path style="stroke: none; stroke-width: 1; stroke-dasharray: none; stroke-linecap: butt; stroke-dashoffset: 0; stroke-linejoin: miter; stroke-miterlimit: 4; is-custom-font: none; font-file-url: none; fill: rgb(0,160,223); fill-rule: nonzero; opacity: 0.3;" transform=" translate(-757.08, -616.085)" d="M 736.93 615.9 c 0 -12.21 8.01 -21.29 20.37 -21.29 c 12.89 0 20.37 9.84 19.91 24.34 h -29.75 c 0.15 6.1 4.2 10.45 10.07 10.45 c 3.43 0 6.26 -1.14 8.39 -4.73 h 10.83 c -2.21 6.1 -7.78 12.89 -19.15 12.89 C 744.18 637.57 736.93 627.73 736.93 615.9 z M 747.54 611.7 h 19 c -0.23 -6.94 -4.81 -9.38 -9.46 -9.38 C 752.8 602.32 748.15 605.45 747.54 611.7 z" stroke-linecap="round"/>
</g>
		<g transform="matrix(1 0 0 1 -272.22 194.655)" id="Capa_1">
<path style="stroke: none; stroke-width: 1; stroke-dasharray: none; stroke-linecap: butt; stroke-dashoffset: 0; stroke-linejoin: miter; stroke-miterlimit: 4; is-custom-font: none; font-file-url: none; fill: rgb(0,160,223); fill-rule: nonzero; opacity: 0.3;" transform=" translate(-803.84, -615.6)" d="M 796.06 600.95 c 2.37 -4.12 6.87 -6.33 11.9 -6.33 c 9.84 0 14.19 6.03 14.19 16.1 v 25.86 h -10.53 V 613 c 0 -5.34 -1.14 -9.92 -7.09 -9.92 c -6.94 0 -8.47 5.65 -8.47 12.13 v 21.36 h -10.53 v -41.04 h 10.53 V 600.95 z" stroke-linecap="round"/>
</g>
		<g transform="matrix(1 0 0 1 -226.04 195.14)" id="Capa_1">
<path style="stroke: none; stroke-width: 1; stroke-dasharray: none; stroke-linecap: butt; stroke-dashoffset: 0; stroke-linejoin: miter; stroke-miterlimit: 4; is-custom-font: none; font-file-url: none; fill: rgb(0,160,223); fill-rule: nonzero; opacity: 0.3;" transform=" translate(-850.02, -616.085)" d="M 829.87 615.9 c 0 -12.21 8.01 -21.29 20.37 -21.29 c 12.89 0 20.37 9.84 19.91 24.34 h -29.75 c 0.15 6.1 4.2 10.45 10.07 10.45 c 3.43 0 6.26 -1.14 8.39 -4.73 h 10.83 c -2.21 6.1 -7.78 12.89 -19.15 12.89 C 837.11 637.57 829.87 627.73 829.87 615.9 z M 840.47 611.7 h 19 c -0.23 -6.94 -4.81 -9.38 -9.46 -9.38 C 845.73 602.32 841.08 605.45 840.47 611.7 z" stroke-linecap="round"/>
</g>
		<g transform="matrix(1 0 0 1 -185.85 195.105)" id="Capa_1">
<path style="stroke: none; stroke-width: 1; stroke-dasharray: none; stroke-linecap: butt; stroke-dashoffset: 0; stroke-linejoin: miter; stroke-miterlimit: 4; is-custom-font: none; font-file-url: none; fill: rgb(0,160,223); fill-rule: nonzero; opacity: 0.3;" transform=" translate(-890.21, -616.05)" d="M 901.96 605.68 c -1.53 -0.15 -2.82 -0.23 -4.35 -0.23 c -5.19 0 -8.62 1.91 -8.62 9.61 v 21.51 h -10.53 v -41.04 h 10.38 v 7.17 c 2.37 -5.04 6.1 -7.09 10.83 -7.09 c 0.69 0 1.6 0.08 2.29 0.15 V 605.68 z" stroke-linecap="round"/>
</g>
		<g transform="matrix(1 0 0 1 -161.885 187.97)" id="Capa_1">
<path style="stroke: none; stroke-width: 1; stroke-dasharray: none; stroke-linecap: butt; stroke-dashoffset: 0; stroke-linejoin: miter; stroke-miterlimit: 4; is-custom-font: none; font-file-url: none; fill: rgb(0,160,223); fill-rule: nonzero; opacity: 0.3;" transform=" translate(-914.175, -608.915)" d="M 919.44 581.26 v 9.77 h -10.53 v -9.77 H 919.44 z M 919.44 595.53 v 41.04 h -10.53 v -41.04 H 919.44 z" stroke-linecap="round"/>
</g>
		<g transform="matrix(1 0 0 1 -138.155 187.97)" id="Capa_1">
<path style="stroke: none; stroke-width: 1; stroke-dasharray: none; stroke-linecap: butt; stroke-dashoffset: 0; stroke-linejoin: miter; stroke-miterlimit: 4; is-custom-font: none; font-file-url: none; fill: rgb(0,160,223); fill-rule: nonzero; opacity: 0.3;" transform=" translate(-937.905, -608.915)" d="M 931.42 593.24 c 0 -10.38 4.88 -11.98 15.18 -11.98 h 3.59 v 7.78 h -2.06 c -5.19 0 -6.18 0.61 -6.18 4.5 v 1.98 h 8.24 v 7.25 h -8.24 v 33.8 h -10.53 v -33.8 h -5.8 v -7.25 h 5.8 V 593.24 z" stroke-linecap="round"/>
</g>
		<g transform="matrix(1 0 0 1 -101.53 195.14)" id="Capa_1">
<path style="stroke: none; stroke-width: 1; stroke-dasharray: none; stroke-linecap: butt; stroke-dashoffset: 0; stroke-linejoin: miter; stroke-miterlimit: 4; is-custom-font: none; font-file-url: none; fill: rgb(0,160,223); fill-rule: nonzero; opacity: 0.3;" transform=" translate(-974.53, -616.085)" d="M 954.38 615.9 c 0 -12.21 8.01 -21.29 20.37 -21.29 c 12.89 0 20.37 9.84 19.91 24.34 h -29.75 c 0.15 6.1 4.2 10.45 10.07 10.45 c 3.43 0 6.26 -1.14 8.39 -4.73 h 10.83 c -2.21 6.1 -7.78 12.89 -19.15 12.89 C 961.63 637.57 954.38 627.73 954.38 615.9 z M 964.99 611.7 h 19 c -0.23 -6.94 -4.81 -9.38 -9.46 -9.38 C 970.25 602.32 965.6 605.45 964.99 611.7 z" stroke-linecap="round"/>
</g>
		<g transform="matrix(1 0 0 1 -340.205 51.135)" id="Capa_1">
<path style="stroke: none; stroke-width: 1; stroke-dasharray: none; stroke-linecap: butt; stroke-dashoffset: 0; stroke-linejoin: miter; stroke-miterlimit: 4; is-custom-font: none; font-file-url: none; fill: rgb(0,160,223); fill-rule: nonzero; opacity: 0.3;" transform=" translate(-735.855, -472.08)" d="M 725.31 478.93 c -18.17 -3.54 -33.42 -12.94 -33.42 -32.34 c 0 -22.49 23.87 -32.34 44.51 -32.34 c 23.1 0 42.81 13.55 43.89 34.96 h -21.25 c -1.69 -13.09 -13.09 -17.4 -23.56 -17.4 c -10.16 0 -21.56 3.85 -21.56 13.86 c 0 7.85 6.62 12.17 15.55 13.86 l 14.63 2.62 c 18.17 3.23 38.19 10.47 38.19 33.57 c 0 22.95 -22.79 34.19 -45.28 34.19 c -27.41 0 -45.59 -14.78 -47.59 -38.81 h 21.25 c 2.46 16.33 13.86 21.25 27.1 21.25 c 9.86 0 22.33 -3.54 22.33 -15.55 c 0 -9.55 -8.78 -13.09 -20.64 -15.25 L 725.31 478.93 z" stroke-linecap="round"/>
</g>
		<g transform="matrix(1 0 0 1 -245.88 65.46)" id="Capa_1">
<path style="stroke: none; stroke-width: 1; stroke-dasharray: none; stroke-linecap: butt; stroke-dashoffset: 0; stroke-linejoin: miter; stroke-miterlimit: 4; is-custom-font: none; font-file-url: none; fill: rgb(0,160,223); fill-rule: nonzero; opacity: 0.3;" transform=" translate(-830.18, -486.405)" d="M 821.1 529.91 c -15.86 0 -29.88 -9.24 -29.88 -24.18 c 0 -19.71 22.02 -25.57 54.52 -29.26 v -1.54 c 0 -12.78 -6.78 -17.09 -15.86 -17.09 c -9.09 0 -15.86 4.31 -16.33 13.4 h -19.87 c 1.54 -16.32 15.86 -28.34 36.96 -28.34 c 20.48 0 36.35 8.32 36.35 36.35 c 0 2.62 -0.31 13.71 -0.31 21.25 c 0 13.09 0.92 20.48 2.46 27.41 h -19.56 c -0.62 -2.62 -1.23 -6.62 -1.54 -10.63 C 842.2 526.06 833.57 529.91 821.1 529.91 z M 846.36 490.02 c -23.72 2.46 -33.27 5.24 -33.27 14.48 c 0 6.01 4.77 10.93 14.32 10.93 c 13.25 0 18.94 -7.7 18.94 -21.25 V 490.02 z" stroke-linecap="round"/>
</g>
		<g transform="matrix(1 0 0 1 -155.625 64.62)" id="Capa_1">
<path style="stroke: none; stroke-width: 1; stroke-dasharray: none; stroke-linecap: butt; stroke-dashoffset: 0; stroke-linejoin: miter; stroke-miterlimit: 4; is-custom-font: none; font-file-url: none; fill: rgb(0,160,223); fill-rule: nonzero; opacity: 0.3;" transform=" translate(-920.435, -485.565)" d="M 904.72 455.99 c 4.77 -8.32 13.86 -12.78 24.02 -12.78 c 19.87 0 28.65 12.17 28.65 32.5 v 52.21 h -21.25 v -47.59 c 0 -10.78 -2.31 -20.02 -14.32 -20.02 c -14.01 0 -17.09 11.4 -17.09 24.49 v 43.12 h -21.25 v -82.86 h 21.25 V 455.99 z" stroke-linecap="round"/>
</g>
		<g transform="matrix(1 0 0 1 -37.75 52.135)" id="Capa_1">
<path style="stroke: none; stroke-width: 1; stroke-dasharray: none; stroke-linecap: butt; stroke-dashoffset: 0; stroke-linejoin: miter; stroke-miterlimit: 4; is-custom-font: none; font-file-url: none; fill: rgb(0,160,223); fill-rule: nonzero; opacity: 0.3;" transform=" translate(-1038.31, -473.08)" d="M 999.89 491.41 h 22.02 c 0.46 15.25 6.62 20.48 16.48 20.48 c 9.7 0 16.32 -5.24 16.32 -20.48 v -75.16 h 22.02 v 75.16 c 0 23.56 -14.01 38.5 -38.35 38.5 C 1013.9 529.91 1000.51 513.89 999.89 491.41 z" stroke-linecap="round"/>
</g>
		<g transform="matrix(1 0 0 1 54.26 66.535)" id="Capa_1">
<path style="stroke: none; stroke-width: 1; stroke-dasharray: none; stroke-linecap: butt; stroke-dashoffset: 0; stroke-linejoin: miter; stroke-miterlimit: 4; is-custom-font: none; font-file-url: none; fill: rgb(0,160,223); fill-rule: nonzero; opacity: 0.3;" transform=" translate(-1130.32, -487.48)" d="M 1145.73 516.97 c -4.77 8.32 -14.01 12.94 -24.18 12.94 c -19.87 0 -27.88 -12.17 -27.88 -32.5 v -52.36 h 21.25 v 47.74 c 0 11.09 1.54 20.02 13.55 20.02 c 14.01 0 17.25 -11.55 17.25 -24.64 v -43.12 h 21.25 v 82.86 h -21.25 V 516.97 z" stroke-linecap="round"/>
</g>
		<g transform="matrix(1 0 0 1 145.435 65.46)" id="Capa_1">
<path style="stroke: none; stroke-width: 1; stroke-dasharray: none; stroke-linecap: butt; stroke-dashoffset: 0; stroke-linejoin: miter; stroke-miterlimit: 4; is-custom-font: none; font-file-url: none; fill: rgb(0,160,223); fill-rule: nonzero; opacity: 0.3;" transform=" translate(-1221.495, -486.405)" d="M 1212.41 529.91 c -15.86 0 -29.88 -9.24 -29.88 -24.18 c 0 -19.71 22.02 -25.57 54.52 -29.26 v -1.54 c 0 -12.78 -6.78 -17.09 -15.86 -17.09 c -9.09 0 -15.86 4.31 -16.33 13.4 H 1185 c 1.54 -16.32 15.86 -28.34 36.96 -28.34 c 20.48 0 36.35 8.32 36.35 36.35 c 0 2.62 -0.31 13.71 -0.31 21.25 c 0 13.09 0.92 20.48 2.46 27.41 h -19.56 c -0.62 -2.62 -1.23 -6.62 -1.54 -10.63 C 1233.51 526.06 1224.88 529.91 1212.41 529.91 z M 1237.67 490.02 c -23.72 2.46 -33.27 5.24 -33.27 14.48 c 0 6.01 4.77 10.93 14.32 10.93 c 13.25 0 18.94 -7.7 18.94 -21.25 V 490.02 z" stroke-linecap="round"/>
</g>
		<g transform="matrix(1 0 0 1 235.225 64.62)" id="Capa_1">
<path style="stroke: none; stroke-width: 1; stroke-dasharray: none; stroke-linecap: butt; stroke-dashoffset: 0; stroke-linejoin: miter; stroke-miterlimit: 4; is-custom-font: none; font-file-url: none; fill: rgb(0,160,223); fill-rule: nonzero; opacity: 0.3;" transform=" translate(-1311.285, -485.565)" d="M 1295.57 455.99 c 4.77 -8.32 13.86 -12.78 24.02 -12.78 c 19.87 0 28.65 12.17 28.65 32.5 v 52.21 h -21.25 v -47.59 c 0 -10.78 -2.31 -20.02 -14.32 -20.02 c -14.01 0 -17.09 11.4 -17.09 24.49 v 43.12 h -21.25 v -82.86 h 21.25 V 455.99 z" stroke-linecap="round"/>
</g>
		<g transform="matrix(1 0 0 1 357.64 52.13)" id="Capa_1">
<path style="stroke: none; stroke-width: 1; stroke-dasharray: none; stroke-linecap: butt; stroke-dashoffset: 0; stroke-linejoin: miter; stroke-miterlimit: 4; is-custom-font: none; font-file-url: none; fill: rgb(0,160,223); fill-rule: nonzero; opacity: 0.3;" transform=" translate(-1433.7, -473.075)" d="M 1452.8 527.91 v -10.47 c -5.24 9.09 -15.25 12.47 -23.87 12.47 c -20.33 0 -35.58 -16.94 -35.58 -43.43 c 0 -26.03 14.94 -43.28 35.58 -43.28 c 10.47 0 19.41 4.77 23.87 12.47 v -39.43 h 21.25 v 111.66 H 1452.8 z M 1453.57 486.48 c 0 -16.63 -7.7 -26.95 -19.41 -26.95 c -11.55 0 -18.48 10.93 -18.48 27.11 s 6.93 26.95 18.48 26.95 C 1445.87 513.58 1453.57 503.42 1453.57 486.48 z" stroke-linecap="round"/>
</g>
		<g transform="matrix(1 0 0 1 451.1399 65.61)" id="Capa_1">
<path style="stroke: none; stroke-width: 1; stroke-dasharray: none; stroke-linecap: butt; stroke-dashoffset: 0; stroke-linejoin: miter; stroke-miterlimit: 4; is-custom-font: none; font-file-url: none; fill: rgb(0,160,223); fill-rule: nonzero; opacity: 0.3;" transform=" translate(-1527.1999, -486.555)" d="M 1486.52 486.17 c 0 -24.64 16.17 -42.97 41.12 -42.97 c 26.03 0 41.12 19.87 40.2 49.13 h -60.06 c 0.31 12.32 8.47 21.1 20.33 21.1 c 6.93 0 12.63 -2.31 16.94 -9.55 h 21.87 c -4.47 12.32 -15.71 26.03 -38.66 26.03 C 1501.15 529.91 1486.52 510.04 1486.52 486.17 z M 1507.93 477.7 h 38.35 c -0.46 -14.01 -9.7 -18.94 -19.1 -18.94 C 1518.56 458.76 1509.16 465.07 1507.93 477.7 z" stroke-linecap="round"/>
</g>
		<g transform="matrix(1 0 0 1 585.865 51.13)" id="Capa_1">
<path style="stroke: none; stroke-width: 1; stroke-dasharray: none; stroke-linecap: butt; stroke-dashoffset: 0; stroke-linejoin: miter; stroke-miterlimit: 4; is-custom-font: none; font-file-url: none; fill: rgb(0,160,223); fill-rule: nonzero; opacity: 0.3;" transform=" translate(-1661.925, -472.075)" d="M 1647.45 416.25 c 35.42 0 62.06 11.55 62.06 55.75 c 0 44.35 -26.64 55.9 -62.06 55.9 h -33.11 V 416.25 H 1647.45 z M 1646.53 433.5 h -10.17 v 77.16 h 10.17 c 20.33 0 40.2 -5.08 40.2 -38.66 C 1686.72 438.58 1666.86 433.5 1646.53 433.5 z" stroke-linecap="round"/>
</g>
		<g transform="matrix(1 0 0 1 657.935 51.135)" id="Capa_1">
<path style="stroke: none; stroke-width: 1; stroke-dasharray: none; stroke-linecap: butt; stroke-dashoffset: 0; stroke-linejoin: miter; stroke-miterlimit: 4; is-custom-font: none; font-file-url: none; fill: rgb(0,160,223); fill-rule: nonzero; opacity: 0.3;" transform=" translate(-1733.995, -472.08)" d="M 1744.62 416.25 v 19.71 h -21.25 v -19.71 H 1744.62 z M 1744.62 445.05 v 82.86 h -21.25 v -82.86 H 1744.62 z" stroke-linecap="round"/>
</g>
		<g transform="matrix(1 0 0 1 722 65.61)" id="Capa_1">
<path style="stroke: none; stroke-width: 1; stroke-dasharray: none; stroke-linecap: butt; stroke-dashoffset: 0; stroke-linejoin: miter; stroke-miterlimit: 4; is-custom-font: none; font-file-url: none; fill: rgb(0,160,223); fill-rule: nonzero; opacity: 0.3;" transform=" translate(-1798.06, -486.555)" d="M 1756.94 486.63 c 0 -29.11 19.56 -43.43 41.12 -43.43 s 41.12 14.32 41.12 43.43 s -19.56 43.28 -41.12 43.28 S 1756.94 515.74 1756.94 486.63 z M 1778.5 486.63 c 0 17.25 7.24 26.64 19.56 26.64 s 19.56 -9.39 19.56 -26.64 c 0 -17.4 -7.24 -26.8 -19.56 -26.8 S 1778.5 469.23 1778.5 486.63 z" stroke-linecap="round"/>
</g>
		<g transform="matrix(1 0 0 1 807.465 65.455)" id="Capa_1">
<path style="stroke: none; stroke-width: 1; stroke-dasharray: none; stroke-linecap: butt; stroke-dashoffset: 0; stroke-linejoin: miter; stroke-miterlimit: 4; is-custom-font: none; font-file-url: none; fill: rgb(0,160,223); fill-rule: nonzero; opacity: 0.3;" transform=" translate(-1883.525, -486.4)" d="M 1899.39 470 c -1.54 -6.93 -8.01 -11.86 -18.33 -11.86 c -8.47 0 -14.01 2.93 -14.01 8.01 c 0 4.47 3.23 7.7 11.7 9.55 l 11.09 2.46 c 17.09 3.85 31.11 7.85 31.11 24.95 c 0 16.63 -17.09 26.8 -36.5 26.8 c -20.94 0 -36.35 -10.47 -38.35 -29.42 h 20.48 c 1.23 8.01 6.93 14.01 18.48 14.01 c 9.7 0 15.55 -3.39 15.55 -9.39 c 0 -6.16 -6.47 -8.47 -14.17 -10.16 l -12.32 -2.62 c -16.17 -3.39 -26.49 -9.7 -26.49 -24.8 c 0 -14.94 16.02 -24.64 34.5 -24.64 c 17.86 0 34.34 8.01 37.12 27.11 H 1899.39 z" stroke-linecap="round"/>
</g>
</g>
</g>
</svg>